<svg id="Layer_1" data-name="Layer 1" xmlns="http://www.w3.org/2000/svg" xmlns:xlink="http://www.w3.org/1999/xlink" viewBox="0 0 258.81 202.83"><defs><style>.cls-1,.cls-10,.cls-5{fill:none;}.cls-2{font-size:14px;fill:#4f5050;font-family:Arial-BoldMT, Arial;font-weight:700;}.cls-3{fill:#fff;}.cls-4{fill:#010101;fill-opacity:0;}.cls-5{stroke:#eeedee;stroke-dasharray:0;}.cls-6,.cls-7{isolation:isolate;fill:#989898;font-family:ArialMT, Arial;}.cls-6{font-size:12px;}.cls-7{font-size:11px;}.cls-8{letter-spacing:-0.07em;}.cls-9{clip-path:url(#clip-path);}.cls-10{stroke:#af6439;stroke-miterlimit:10;stroke-width:2px;}.cls-11{fill:#af6439;}</style><clipPath id="clip-path" transform="translate(-296.37 -177.36)"><rect class="cls-1" x="296.37" y="192.5" width="232" height="183.12"/></clipPath></defs><title>Social Issues_U</title><text class="cls-2" transform="translate(0 12.01)">Urbanlization</text><rect class="cls-3" y="35.14" width="232" height="153.12"/><path class="cls-4" d="M363.73,365.62l16-134.09-2.83-19H296.37V365.62Z" transform="translate(-296.37 -177.36)"/><path class="cls-4" d="M435.56,365.62,379.73,231.53l-16,134.09Z" transform="translate(-296.37 -177.36)"/><path class="cls-4" d="M376.9,212.5l2.83,19,55.83,134.09h92.81V350.36L413.56,212.5Z" transform="translate(-296.37 -177.36)"/><path class="cls-4" d="M413.56,212.5,528.37,350.36V212.5Z" transform="translate(-296.37 -177.36)"/><line class="cls-5" y1="188.76" x2="232" y2="188.76"/><text class="cls-6" transform="translate(3 184.8)">0%</text><line class="cls-5" y1="166.88" x2="232" y2="166.88"/><text class="cls-6" transform="translate(3 162.92)">5%</text><line class="cls-5" y1="145.01" x2="232" y2="145.01"/><text class="cls-6" transform="translate(3 141.05)">10%</text><line class="cls-5" y1="123.13" x2="232" y2="123.13"/><text class="cls-6" transform="translate(3 119.17)">15%</text><line class="cls-5" y1="101.26" x2="232" y2="101.26"/><text class="cls-6" transform="translate(3 97.3)">20%</text><line class="cls-5" y1="79.39" x2="232" y2="79.39"/><text class="cls-6" transform="translate(3 75.43)">25%</text><line class="cls-5" y1="57.51" x2="232" y2="57.51"/><text class="cls-6" transform="translate(3 53.55)">30%</text><line class="cls-5" y1="35.64" x2="232" y2="35.64"/><text class="cls-6" transform="translate(3 31.68)">35%</text><line class="cls-5" x1="35.5" y1="188.26" x2="35.5" y2="35.14"/><text class="cls-7" transform="translate(9.2 199.26)">2003-2006</text><line class="cls-5" x1="101.17" y1="188.26" x2="101.17" y2="35.14"/><text class="cls-7" transform="translate(74.87 199.26)">2007-2010</text><line class="cls-5" x1="166.84" y1="188.26" x2="166.84" y2="35.14"/><text class="cls-7" transform="translate(140.94 199.26)">20<tspan class="cls-8" x="12.24" y="0">1</tspan><tspan x="17.54" y="0">1-2014</tspan></text><line class="cls-5" x1="232.5" y1="188.26" x2="232.5" y2="35.14"/><text class="cls-7" transform="translate(206.2 199.26)">2015-2018</text><g class="cls-9"><path class="cls-10" d="M331.37,357.79,397,365.62l65.66-27.34,65.67-54.69" transform="translate(-296.37 -177.36)"/></g><path id="point-3-0" class="cls-11" d="M328.37,357.79a3,3,0,1,1,3,3A3,3,0,0,1,328.37,357.79Z" transform="translate(-296.37 -177.36)"/><path id="point-3-1" class="cls-11" d="M394,365.62a3,3,0,1,1,3,3A3,3,0,0,1,394,365.62Z" transform="translate(-296.37 -177.36)"/><path id="point-3-2" class="cls-11" d="M459.7,338.28a3,3,0,1,1,3,3,3,3,0,0,1-3-3Z" transform="translate(-296.37 -177.36)"/><path id="point-3-3" class="cls-11" d="M525.37,283.59a3,3,0,1,1,3,3A3,3,0,0,1,525.37,283.59Z" transform="translate(-296.37 -177.36)"/></svg>