<svg id="Layer_1" data-name="Layer 1" xmlns="http://www.w3.org/2000/svg" xmlns:xlink="http://www.w3.org/1999/xlink" viewBox="0 0 258.81 202.79"><defs><style>.cls-1,.cls-10,.cls-5{fill:none;}.cls-2{font-size:14px;fill:#4f5050;font-family:Arial-BoldMT, Arial;font-weight:700;}.cls-3{fill:#fff;}.cls-4{fill:#010101;fill-opacity:0;}.cls-5{stroke:#eeedee;stroke-dasharray:0;}.cls-6,.cls-7{isolation:isolate;fill:#989898;font-family:ArialMT, Arial;}.cls-6{font-size:12px;}.cls-7{font-size:11px;}.cls-8{letter-spacing:-0.07em;}.cls-9{clip-path:url(#clip-path);}.cls-10{stroke:#af6439;stroke-miterlimit:10;stroke-width:2px;}.cls-11{fill:#af6439;}</style><clipPath id="clip-path" transform="translate(-296.08 -177.36)"><rect class="cls-1" x="296.08" y="192.46" width="232" height="183.12"/></clipPath></defs><title>Social Issues_ES</title><text class="cls-2" transform="translate(0 12.01)">Issues in Education System</text><rect class="cls-3" y="35.1" width="232" height="153.12"/><path class="cls-4" d="M363.45,365.58l18.26-153.12H296.08V365.58Z" transform="translate(-296.08 -177.36)"/><path class="cls-4" d="M429.58,365.58V259.39L410,212.46H381.71L363.45,365.58Z" transform="translate(-296.08 -177.36)"/><path class="cls-4" d="M429.58,259.39V365.58H518Z" transform="translate(-296.08 -177.36)"/><path class="cls-4" d="M410,212.46l19.54,46.93L518,365.58h10.06V212.46Z" transform="translate(-296.08 -177.36)"/><line class="cls-5" y1="188.72" x2="232" y2="188.72"/><text class="cls-6" transform="translate(3 184.76)">0%</text><line class="cls-5" y1="166.84" x2="232" y2="166.84"/><text class="cls-6" transform="translate(3 162.88)">5%</text><line class="cls-5" y1="144.97" x2="232" y2="144.97"/><text class="cls-6" transform="translate(3 141.01)">10%</text><line class="cls-5" y1="123.1" x2="232" y2="123.1"/><text class="cls-6" transform="translate(3 119.14)">15%</text><line class="cls-5" y1="101.22" x2="232" y2="101.22"/><text class="cls-6" transform="translate(3 97.26)">20%</text><line class="cls-5" y1="79.35" x2="232" y2="79.35"/><text class="cls-6" transform="translate(3 75.39)">25%</text><line class="cls-5" y1="57.47" x2="232" y2="57.47"/><text class="cls-6" transform="translate(3 53.51)">30%</text><line class="cls-5" y1="35.6" x2="232" y2="35.6"/><text class="cls-6" transform="translate(3 31.64)">35%</text><line class="cls-5" x1="35.5" y1="188.22" x2="35.5" y2="35.1"/><text class="cls-7" transform="translate(9.2 199.22)">2003-2006</text><line class="cls-5" x1="101.17" y1="188.22" x2="101.17" y2="35.1"/><text class="cls-7" transform="translate(74.87 199.22)">2007-2010</text><line class="cls-5" x1="166.84" y1="188.22" x2="166.84" y2="35.1"/><text class="cls-7" transform="translate(140.94 199.22)">20<tspan class="cls-8" x="12.24" y="0">1</tspan><tspan x="17.54" y="0">1-2014</tspan></text><line class="cls-5" x1="232.5" y1="188.22" x2="232.5" y2="35.1"/><text class="cls-7" transform="translate(206.2 199.22)">2015-2018</text><g class="cls-9"><path class="cls-10" d="M331.08,357.75l65.67,7.83h65.67l65.66-54.68" transform="translate(-296.08 -177.36)"/></g><path id="point-0-0" class="cls-11" d="M328.08,357.75a3,3,0,1,1,3,3A3,3,0,0,1,328.08,357.75Z" transform="translate(-296.08 -177.36)"/><path id="point-0-1" class="cls-11" d="M393.75,365.58a3,3,0,1,1,3,3A3,3,0,0,1,393.75,365.58Z" transform="translate(-296.08 -177.36)"/><path id="point-0-2" class="cls-11" d="M459.42,365.58a3,3,0,1,1,3,3A3,3,0,0,1,459.42,365.58Z" transform="translate(-296.08 -177.36)"/><path id="point-0-3" class="cls-11" d="M525.08,310.9a3,3,0,1,1,3,3A3,3,0,0,1,525.08,310.9Z" transform="translate(-296.08 -177.36)"/></svg>