<svg id="Layer_1" data-name="Layer 1" xmlns="http://www.w3.org/2000/svg" xmlns:xlink="http://www.w3.org/1999/xlink" viewBox="0 0 258.81 203.38"><defs><style>.cls-1,.cls-10,.cls-5{fill:none;}.cls-2{font-size:14px;fill:#4f5050;font-family:Arial-BoldMT, Arial;font-weight:700;}.cls-3{fill:#fff;}.cls-4{fill:#010101;fill-opacity:0;}.cls-5{stroke:#eeedee;stroke-dasharray:0;}.cls-6,.cls-7{isolation:isolate;fill:#989898;font-family:ArialMT, Arial;}.cls-6{font-size:12px;}.cls-7{font-size:11px;}.cls-8{letter-spacing:-0.07em;}.cls-9{clip-path:url(#clip-path);}.cls-10{stroke:#af6439;stroke-miterlimit:10;stroke-width:2px;}.cls-11{fill:#af6439;}</style><clipPath id="clip-path" transform="translate(-296.77 -176.81)"><rect class="cls-1" x="296.77" y="191.5" width="232" height="183.12"/></clipPath></defs><title>Social Issues_PH &amp;amp; HS</title><text class="cls-2" transform="translate(0 12.01)">Public Health &amp; Health Service</text><rect class="cls-3" y="34.69" width="232" height="153.12"/><path class="cls-4" d="M318.92,364.62l75-153.12H296.77V364.62Z" transform="translate(-296.77 -176.81)"/><path class="cls-4" d="M390.56,364.62l72.13-95L448.46,211.5H393.9l-75,153.12Z" transform="translate(-296.77 -176.81)"/><path class="cls-4" d="M528.77,322.55l-66.08-52.9-72.13,95H528.77Z" transform="translate(-296.77 -176.81)"/><path class="cls-4" d="M448.46,211.5l14.23,58.15,66.08,52.9v-111Z" transform="translate(-296.77 -176.81)"/><line class="cls-5" y1="188.31" x2="232" y2="188.31"/><text class="cls-6" transform="translate(3 184.35)">0%</text><line class="cls-5" y1="166.44" x2="232" y2="166.44"/><text class="cls-6" transform="translate(3 162.48)">5%</text><line class="cls-5" y1="144.56" x2="232" y2="144.56"/><text class="cls-6" transform="translate(3 140.6)">10%</text><line class="cls-5" y1="122.69" x2="232" y2="122.69"/><text class="cls-6" transform="translate(3 118.73)">15%</text><line class="cls-5" y1="100.81" x2="232" y2="100.81"/><text class="cls-6" transform="translate(3 96.85)">20%</text><line class="cls-5" y1="78.94" x2="232" y2="78.94"/><text class="cls-6" transform="translate(3 74.98)">25%</text><line class="cls-5" y1="57.06" x2="232" y2="57.06"/><text class="cls-6" transform="translate(3 53.1)">30%</text><line class="cls-5" y1="35.19" x2="232" y2="35.19"/><text class="cls-6" transform="translate(3 31.23)">35%</text><line class="cls-5" x1="35.5" y1="187.81" x2="35.5" y2="34.69"/><text class="cls-7" transform="translate(9.2 199.81)">2003-2006</text><line class="cls-5" x1="101.17" y1="187.81" x2="101.17" y2="34.69"/><text class="cls-7" transform="translate(74.87 199.81)">2007-2010</text><line class="cls-5" x1="166.84" y1="187.81" x2="166.84" y2="34.69"/><text class="cls-7" transform="translate(140.94 199.81)">20<tspan class="cls-8" x="12.24" y="0">1</tspan><tspan x="17.54" y="0">1-2014</tspan></text><line class="cls-5" x1="232.5" y1="187.81" x2="232.5" y2="34.69"/><text class="cls-7" transform="translate(206.2 199.81)">2015-2018</text><g class="cls-9"><path class="cls-10" d="M331.77,255.25l65.67,32.15,65.66,49.88,65.67-82" transform="translate(-296.77 -176.81)"/></g><path id="point-1-0" class="cls-11" d="M328.77,255.25a3,3,0,1,1,3,3A3,3,0,0,1,328.77,255.25Z" transform="translate(-296.77 -176.81)"/><path id="point-1-1" class="cls-11" d="M394.44,287.4a3,3,0,1,1,3,3A3,3,0,0,1,394.44,287.4Z" transform="translate(-296.77 -176.81)"/><path id="point-1-2" class="cls-11" d="M460.1,337.28a3,3,0,1,1,3,3,3,3,0,0,1-3-3Z" transform="translate(-296.77 -176.81)"/><path id="point-1-3" class="cls-11" d="M525.77,255.25a3,3,0,1,1,3,3A3,3,0,0,1,525.77,255.25Z" transform="translate(-296.77 -176.81)"/></svg>