<svg id="Layer_1" data-name="Layer 1" xmlns="http://www.w3.org/2000/svg" xmlns:xlink="http://www.w3.org/1999/xlink" viewBox="0 0 258.81 200.74"><defs><style>.cls-1,.cls-12,.cls-7{fill:none;}.cls-2{font-size:11.5px;fill:#4f5050;font-family:Arial-BoldMT, Arial;font-weight:700;}.cls-3{letter-spacing:-0.04em;}.cls-4{letter-spacing:0em;}.cls-5{fill:#fff;}.cls-6{fill:#010101;fill-opacity:0;}.cls-7{stroke:#eeedee;stroke-dasharray:0;}.cls-8,.cls-9{isolation:isolate;fill:#989898;font-family:ArialMT, Arial;}.cls-8{font-size:12px;}.cls-9{font-size:11px;}.cls-10{letter-spacing:-0.07em;}.cls-11{clip-path:url(#clip-path);}.cls-12{stroke:#af6439;stroke-miterlimit:10;stroke-width:2px;}.cls-13{fill:#af6439;}</style><clipPath id="clip-path" transform="translate(-296.11 -178.45)"><rect class="cls-1" x="296.12" y="191.5" width="232" height="183.12"/></clipPath></defs><title>Social Issues_EI &amp;amp; AP</title><text class="cls-2" transform="translate(0 9.87)">Environmental Issues &amp;<tspan class="cls-3" x="130.37" y="0"> </tspan><tspan class="cls-4" x="133.14" y="0">Animal Protection</tspan></text><rect class="cls-5" y="33.04" width="232" height="153.12"/><path class="cls-6" d="M421.59,364.62,427.41,332,306,211.5h-9.88V364.62Z" transform="translate(-296.11 -178.45)"/><path class="cls-6" d="M306,211.5,427.41,332l12.49-16.19L427.11,211.5Z" transform="translate(-296.11 -178.45)"/><path class="cls-6" d="M427.11,211.5,439.9,315.84l88.22-53V211.5Z" transform="translate(-296.11 -178.45)"/><path class="cls-6" d="M528.12,262.88l-88.22,53L427.41,332l-5.82,32.59H528.12Z" transform="translate(-296.11 -178.45)"/><line class="cls-7" y1="186.67" x2="232" y2="186.67"/><text class="cls-8" transform="translate(3 182.71)">0%</text><line class="cls-7" y1="164.79" x2="232" y2="164.79"/><text class="cls-8" transform="translate(3 160.83)">5%</text><line class="cls-7" y1="142.92" x2="232" y2="142.92"/><text class="cls-8" transform="translate(3 138.96)">10%</text><line class="cls-7" y1="121.04" x2="232" y2="121.04"/><text class="cls-8" transform="translate(3 117.08)">15%</text><line class="cls-7" y1="99.17" x2="232" y2="99.17"/><text class="cls-8" transform="translate(3 95.21)">20%</text><line class="cls-7" y1="77.29" x2="232" y2="77.29"/><text class="cls-8" transform="translate(3 73.33)">25%</text><line class="cls-7" y1="55.42" x2="232" y2="55.42"/><text class="cls-8" transform="translate(3 51.46)">30%</text><line class="cls-7" y1="33.54" x2="232" y2="33.54"/><text class="cls-8" transform="translate(3 29.58)">35%</text><line class="cls-7" x1="35.5" y1="186.17" x2="35.5" y2="33.04"/><text class="cls-9" transform="translate(9.2 197.17)">2003-2006</text><line class="cls-7" x1="101.17" y1="186.17" x2="101.17" y2="33.04"/><text class="cls-9" transform="translate(74.87 197.17)">2007-2010</text><line class="cls-7" x1="166.84" y1="186.17" x2="166.84" y2="33.04"/><text class="cls-9" transform="translate(140.94 197.17)">20<tspan class="cls-10" x="12.24" y="0">1</tspan><tspan x="17.54" y="0">1-2014</tspan></text><text class="cls-9" transform="translate(206.2 197.17)">2015-2018</text><g class="cls-11"><path class="cls-12" d="M331.12,302.1,396.78,236l65.67-8,65.67,109.38" transform="translate(-296.11 -178.45)"/></g><path id="point-6-0" class="cls-13" d="M328.12,302.1a3,3,0,1,1,3,3A3,3,0,0,1,328.12,302.1Z" transform="translate(-296.11 -178.45)"/><path id="point-6-1" class="cls-13" d="M393.78,236a3,3,0,1,1,3,3A3,3,0,0,1,393.78,236Z" transform="translate(-296.11 -178.45)"/><path id="point-6-2" class="cls-13" d="M459.45,227.9a3,3,0,1,1,3,3A3,3,0,0,1,459.45,227.9Z" transform="translate(-296.11 -178.45)"/><path id="point-6-3" class="cls-13" d="M525.12,337.28a3,3,0,1,1,3,3,3,3,0,0,1-3-3Z" transform="translate(-296.11 -178.45)"/></svg>