<svg id="Layer_1" data-name="Layer 1" xmlns="http://www.w3.org/2000/svg" xmlns:xlink="http://www.w3.org/1999/xlink" viewBox="0 0 258.81 202.99"><defs><style>.cls-1,.cls-10,.cls-5{fill:none;}.cls-2{font-size:14px;fill:#4f5050;font-family:Arial-BoldMT, Arial;font-weight:700;}.cls-3{fill:#fff;}.cls-4{fill:#010101;fill-opacity:0;}.cls-5{stroke:#eeedee;stroke-dasharray:0;}.cls-6,.cls-7{isolation:isolate;fill:#989898;font-family:ArialMT, Arial;}.cls-6{font-size:12px;}.cls-7{font-size:11px;}.cls-8{letter-spacing:-0.07em;}.cls-9{clip-path:url(#clip-path);}.cls-10{stroke:#af6439;stroke-miterlimit:10;stroke-width:2px;}.cls-11{fill:#af6439;}</style><clipPath id="clip-path" transform="translate(-296.23 -176.81)"><rect class="cls-1" x="296.23" y="192.1" width="232" height="183.12"/></clipPath></defs><title>Social Issues_PS</title><text class="cls-2" transform="translate(0 12.01)">Public Safety</text><rect class="cls-3" y="35.29" width="232" height="153.12"/><path class="cls-4" d="M371.83,365.22,355.71,212.1H296.23V365.22Z" transform="translate(-296.23 -176.81)"/><path class="cls-4" d="M355.71,212.1l16.12,153.12H485.41l-15.27-62.37L387.91,212.1Z" transform="translate(-296.23 -176.81)"/><path class="cls-4" d="M387.91,212.1l82.23,90.75,37.78-90.75Z" transform="translate(-296.23 -176.81)"/><path class="cls-4" d="M470.14,302.85l15.27,62.37h42.82V212.1H507.92Z" transform="translate(-296.23 -176.81)"/><line class="cls-5" y1="188.91" x2="232" y2="188.91"/><text class="cls-6" transform="translate(3 184.95)">0%</text><line class="cls-5" y1="167.04" x2="232" y2="167.04"/><text class="cls-6" transform="translate(3 163.08)">5%</text><line class="cls-5" y1="145.16" x2="232" y2="145.16"/><text class="cls-6" transform="translate(3 141.2)">10%</text><line class="cls-5" y1="123.29" x2="232" y2="123.29"/><text class="cls-6" transform="translate(3 119.33)">15%</text><line class="cls-5" y1="101.41" x2="232" y2="101.41"/><text class="cls-6" transform="translate(3 97.45)">20%</text><line class="cls-5" y1="79.54" x2="232" y2="79.54"/><text class="cls-6" transform="translate(3 75.58)">25%</text><line class="cls-5" y1="57.67" x2="232" y2="57.67"/><text class="cls-6" transform="translate(3 53.71)">30%</text><line class="cls-5" y1="35.79" x2="232" y2="35.79"/><text class="cls-6" transform="translate(3 31.83)">35%</text><line class="cls-5" x1="35.5" y1="188.41" x2="35.5" y2="35.29"/><text class="cls-7" transform="translate(9.2 199.41)">2003-2006</text><line class="cls-5" x1="101.17" y1="188.41" x2="101.17" y2="35.29"/><text class="cls-7" transform="translate(74.87 199.41)">2007-2010</text><line class="cls-5" x1="166.84" y1="188.41" x2="166.84" y2="35.29"/><text class="cls-7" transform="translate(140.94 199.41)">20<tspan class="cls-8" x="12.24" y="0">1</tspan><tspan x="17.54" y="0">1-2014</tspan></text><line class="cls-5" x1="232.5" y1="188.41" x2="232.5" y2="35.29"/><text class="cls-7" transform="translate(206.2 199.41)">2015-2018</text><g class="cls-9"><path class="cls-10" d="M331.23,294.92,396.9,288l65.67-59.5,65.66,27.34" transform="translate(-296.23 -176.81)"/></g><path id="point-2-0" class="cls-11" d="M328.23,294.92a3,3,0,1,1,3,3A3,3,0,0,1,328.23,294.92Z" transform="translate(-296.23 -176.81)"/><path id="point-2-1" class="cls-11" d="M393.9,288a3,3,0,1,1,3,3A3,3,0,0,1,393.9,288Z" transform="translate(-296.23 -176.81)"/><path id="point-2-2" class="cls-11" d="M459.57,228.51a3,3,0,1,1,3,3A3,3,0,0,1,459.57,228.51Z" transform="translate(-296.23 -176.81)"/><path id="point-2-3" class="cls-11" d="M525.23,255.85a3,3,0,1,1,3,3A3,3,0,0,1,525.23,255.85Z" transform="translate(-296.23 -176.81)"/></svg>