<svg id="Layer_1" data-name="Layer 1" xmlns="http://www.w3.org/2000/svg" xmlns:xlink="http://www.w3.org/1999/xlink" viewBox="0 0 261.61 204.25"><defs><style>.cls-1,.cls-3,.cls-8{fill:none;}.cls-2{fill:#fff;}.cls-3{stroke:#eeedee;stroke-dasharray:0;}.cls-4,.cls-5{isolation:isolate;fill:#989898;font-family:ArialMT, Arial;}.cls-4{font-size:12px;}.cls-5{font-size:11px;}.cls-6{letter-spacing:-0.07em;}.cls-7{clip-path:url(#clip-path);}.cls-8{stroke:#e07d26;stroke-width:2px;}.cls-9{fill:#e07d26;}.cls-10{font-size:14px;fill:#4f5050;font-family:Arial-BoldMT, Arial;font-weight:700;}</style><clipPath id="clip-path" transform="translate(-263.03 -203.99)"><rect class="cls-1" x="263.03" y="216.69" width="234.8" height="184.97"/></clipPath></defs><title>Culture_Other Spectaculars and Media</title><rect class="cls-2" y="32.7" width="234.8" height="154.97"/><line class="cls-3" y1="188.17" x2="234.8" y2="188.17"/><text class="cls-4" transform="translate(3 184.21)">0%</text><line class="cls-3" y1="166.03" x2="234.8" y2="166.03"/><text class="cls-4" transform="translate(3 162.07)">5%</text><line class="cls-3" y1="143.9" x2="234.8" y2="143.9"/><text class="cls-4" transform="translate(3 139.94)">10%</text><line class="cls-3" y1="121.76" x2="234.8" y2="121.76"/><text class="cls-4" transform="translate(3 117.8)">15%</text><line class="cls-3" y1="99.62" x2="234.8" y2="99.62"/><text class="cls-4" transform="translate(3 95.66)">20%</text><line class="cls-3" y1="77.48" x2="234.8" y2="77.48"/><text class="cls-4" transform="translate(3 73.52)">25%</text><line class="cls-3" y1="55.34" x2="234.8" y2="55.34"/><text class="cls-4" transform="translate(3 51.38)">30%</text><line class="cls-3" y1="33.2" x2="234.8" y2="33.2"/><text class="cls-4" transform="translate(3 29.24)">35%</text><line class="cls-3" x1="35.5" y1="187.67" x2="35.5" y2="32.7"/><text class="cls-5" transform="translate(9.2 200.67)">2003-2006</text><line class="cls-3" x1="102.1" y1="187.67" x2="102.1" y2="32.7"/><text class="cls-5" transform="translate(75.8 200.67)">2007-2010</text><line class="cls-3" x1="168.7" y1="187.67" x2="168.7" y2="32.7"/><text class="cls-5" transform="translate(142.81 200.67)">20<tspan class="cls-6" x="12.24" y="0">1</tspan><tspan x="17.54" y="0">1-2014</tspan></text><line class="cls-3" x1="235.3" y1="187.67" x2="235.3" y2="32.7"/><text class="cls-5" transform="translate(209 200.67)">2015-2018</text><g class="cls-7"><path class="cls-8" d="M298,353.49l66.6-2.08,66.61,14.22,66.6,7.3" transform="translate(-263.03 -203.99)"/></g><path id="point-6-0" class="cls-9" d="M295,353.49a3,3,0,0,1,6,0h0a3,3,0,0,1-6,0Z" transform="translate(-263.03 -203.99)"/><path id="point-6-1" class="cls-9" d="M361.63,351.41a3,3,0,1,1,3,3,3,3,0,0,1-3-3Z" transform="translate(-263.03 -203.99)"/><path id="point-6-2" class="cls-9" d="M428.24,365.63a3,3,0,1,1,3,3A3,3,0,0,1,428.24,365.63Z" transform="translate(-263.03 -203.99)"/><path id="point-6-3" class="cls-9" d="M494.84,372.93a3,3,0,1,1,3,3A3,3,0,0,1,494.84,372.93Z" transform="translate(-263.03 -203.99)"/><text class="cls-10" transform="translate(0 12.01)">Other Spectaculars and Media</text></svg>