<svg id="Layer_1" data-name="Layer 1" xmlns="http://www.w3.org/2000/svg" xmlns:xlink="http://www.w3.org/1999/xlink" viewBox="0 0 261.61 203.35"><defs><style>.cls-1,.cls-3,.cls-8{fill:none;}.cls-2{fill:#fff;}.cls-3{stroke:#eeedee;stroke-dasharray:0;}.cls-4,.cls-5{isolation:isolate;fill:#989898;font-family:ArialMT, Arial;}.cls-4{font-size:12px;}.cls-5{font-size:11px;}.cls-6{letter-spacing:-0.07em;}.cls-7{clip-path:url(#clip-path);}.cls-8{stroke:#e07d26;stroke-width:2px;}.cls-9{fill:#e07d26;}.cls-10{font-size:14px;fill:#4f5050;font-family:Arial-BoldMT, Arial;font-weight:700;}</style><clipPath id="clip-path" transform="translate(-262.6 -204.99)"><rect class="cls-1" x="262.6" y="216.8" width="234.8" height="184.97"/></clipPath></defs><title>Culture_Culture of Daily Life</title><rect class="cls-2" y="31.81" width="234.8" height="154.97"/><line class="cls-3" y1="187.28" x2="234.8" y2="187.28"/><text class="cls-4" transform="translate(3 183.32)">0%</text><line class="cls-3" y1="165.14" x2="234.8" y2="165.14"/><text class="cls-4" transform="translate(3 161.18)">5%</text><line class="cls-3" y1="143" x2="234.8" y2="143"/><text class="cls-4" transform="translate(3 139.04)">10%</text><line class="cls-3" y1="120.87" x2="234.8" y2="120.87"/><text class="cls-4" transform="translate(3 116.91)">15%</text><line class="cls-3" y1="98.73" x2="234.8" y2="98.73"/><text class="cls-4" transform="translate(3 94.77)">20%</text><line class="cls-3" y1="76.59" x2="234.8" y2="76.59"/><text class="cls-4" transform="translate(3 72.63)">25%</text><line class="cls-3" y1="54.45" x2="234.8" y2="54.45"/><text class="cls-4" transform="translate(3 50.49)">30%</text><line class="cls-3" y1="32.31" x2="234.8" y2="32.31"/><text class="cls-4" transform="translate(3 28.35)">35%</text><line class="cls-3" x1="35.5" y1="186.78" x2="35.5" y2="31.81"/><text class="cls-5" transform="translate(9.2 199.78)">2003-2006</text><line class="cls-3" x1="102.1" y1="186.78" x2="102.1" y2="31.81"/><text class="cls-5" transform="translate(75.8 199.78)">2007-2010</text><line class="cls-3" x1="168.7" y1="186.78" x2="168.7" y2="31.81"/><text class="cls-5" transform="translate(142.81 199.78)">20<tspan class="cls-6" x="12.24" y="0">1</tspan><tspan x="17.54" y="0">1-2014</tspan></text><line class="cls-3" x1="235.3" y1="186.78" x2="235.3" y2="31.81"/><text class="cls-5" transform="translate(209 199.78)">2015-2018</text><g class="cls-7"><path class="cls-8" d="M297.6,368.88l66.61-25.42L430.81,242l66.6,56.19" transform="translate(-262.6 -204.99)"/></g><path id="point-1-0" class="cls-9" d="M294.6,368.88a3,3,0,1,1,3,3A3,3,0,0,1,294.6,368.88Z" transform="translate(-262.6 -204.99)"/><path id="point-1-1" class="cls-9" d="M361.21,343.46a3,3,0,1,1,3,3A3,3,0,0,1,361.21,343.46Z" transform="translate(-262.6 -204.99)"/><path id="point-1-2" class="cls-9" d="M427.81,242a3,3,0,1,1,3,3A3,3,0,0,1,427.81,242Z" transform="translate(-262.6 -204.99)"/><path id="point-1-3" class="cls-9" d="M494.41,298.21a3,3,0,1,1,3,3A3,3,0,0,1,494.41,298.21Z" transform="translate(-262.6 -204.99)"/><text class="cls-10" transform="translate(0 12.01)">Culture of Daily Life</text></svg>