<svg id="Layer_1" data-name="Layer 1" xmlns="http://www.w3.org/2000/svg" xmlns:xlink="http://www.w3.org/1999/xlink" viewBox="0 0 261.61 203.35"><defs><style>.cls-1,.cls-3,.cls-8{fill:none;}.cls-2{fill:#fff;}.cls-3{stroke:#eeedee;stroke-dasharray:0;}.cls-4,.cls-5{isolation:isolate;fill:#989898;font-family:ArialMT, Arial;}.cls-4{font-size:12px;}.cls-5{font-size:11px;}.cls-6{letter-spacing:-0.07em;}.cls-7{clip-path:url(#clip-path);}.cls-8{stroke:#e07d26;stroke-width:2px;}.cls-9{fill:#e07d26;}.cls-10{font-size:14px;fill:#4f5050;font-family:Arial-BoldMT, Arial;font-weight:700;}</style><clipPath id="clip-path" transform="translate(-263 -204.99)"><rect class="cls-1" x="263" y="216.8" width="234.8" height="184.97"/></clipPath></defs><title>Culture_Mass Culture</title><rect class="cls-2" y="31.81" width="234.8" height="154.97"/><line class="cls-3" y1="187.28" x2="234.8" y2="187.28"/><text class="cls-4" transform="translate(3 183.32)">0%</text><line class="cls-3" y1="165.14" x2="234.8" y2="165.14"/><text class="cls-4" transform="translate(3 161.18)">5%</text><line class="cls-3" y1="143" x2="234.8" y2="143"/><text class="cls-4" transform="translate(3 139.04)">10%</text><line class="cls-3" y1="120.87" x2="234.8" y2="120.87"/><text class="cls-4" transform="translate(3 116.91)">15%</text><line class="cls-3" y1="98.73" x2="234.8" y2="98.73"/><text class="cls-4" transform="translate(3 94.77)">20%</text><line class="cls-3" y1="76.59" x2="234.8" y2="76.59"/><text class="cls-4" transform="translate(3 72.63)">25%</text><line class="cls-3" y1="54.45" x2="234.8" y2="54.45"/><text class="cls-4" transform="translate(3 50.49)">30%</text><line class="cls-3" y1="32.31" x2="234.8" y2="32.31"/><text class="cls-4" transform="translate(3 28.35)">35%</text><line class="cls-3" x1="35.5" y1="186.78" x2="35.5" y2="31.81"/><text class="cls-5" transform="translate(9.2 199.78)">2003-2006</text><line class="cls-3" x1="102.1" y1="186.78" x2="102.1" y2="31.81"/><text class="cls-5" transform="translate(75.8 199.78)">2007-2010</text><line class="cls-3" x1="168.7" y1="186.78" x2="168.7" y2="31.81"/><text class="cls-5" transform="translate(142.81 199.78)">20<tspan class="cls-6" x="12.24" y="0">1</tspan><tspan x="17.54" y="0">1-2014</tspan></text><line class="cls-3" x1="235.3" y1="186.78" x2="235.3" y2="31.81"/><text class="cls-5" transform="translate(209 199.78)">2015-2018</text><g class="cls-7"><path class="cls-8" d="M298,284.89l66.6,34.44,66.6,39.9,66.6-17.36" transform="translate(-263 -204.99)"/></g><path id="point-0-0" class="cls-9" d="M295,284.89a3,3,0,1,1,3,3A3,3,0,0,1,295,284.89Z" transform="translate(-263 -204.99)"/><path id="point-0-1" class="cls-9" d="M361.6,319.33a3,3,0,1,1,3,3A3,3,0,0,1,361.6,319.33Z" transform="translate(-263 -204.99)"/><path id="point-0-2" class="cls-9" d="M428.2,359.23a3,3,0,0,1,6,0h0a3,3,0,0,1-6,0Z" transform="translate(-263 -204.99)"/><path id="point-0-3" class="cls-9" d="M494.8,341.87a3,3,0,1,1,3,3A3,3,0,0,1,494.8,341.87Z" transform="translate(-263 -204.99)"/><text class="cls-10" transform="translate(0 12.01)">Mass Culture</text></svg>