<svg id="Layer_1" data-name="Layer 1" xmlns="http://www.w3.org/2000/svg" xmlns:xlink="http://www.w3.org/1999/xlink" viewBox="0 0 258.81 203.56"><defs><style>.cls-1,.cls-10,.cls-5{fill:none;}.cls-2{font-size:14px;fill:#4f5050;font-family:Arial-BoldMT, Arial;font-weight:700;}.cls-3{fill:#fff;}.cls-4{fill:#010101;fill-opacity:0;}.cls-5{stroke:#eeedee;stroke-dasharray:0;}.cls-6,.cls-7{isolation:isolate;fill:#989898;font-family:ArialMT, Arial;}.cls-6{font-size:12px;}.cls-7{font-size:11px;}.cls-8{letter-spacing:-0.07em;}.cls-9{clip-path:url(#clip-path);}.cls-10{stroke:#3ebda7;stroke-width:2px;}.cls-11{fill:#3ebda7;}</style><clipPath id="clip-path" transform="translate(-296.22 -176.97)"><rect class="cls-1" x="296.22" y="193.83" width="232" height="183.12"/></clipPath></defs><title>figure_Politicians</title><text class="cls-2" transform="translate(0 12.01)">Politicians</text><rect class="cls-3" y="36.87" width="232" height="153.12"/><path class="cls-4" d="M324.12,367l78-70.76-22.3-82.37H296.22V367Z" transform="translate(-296.22 -176.97)"/><path class="cls-4" d="M469.45,367l-12-37.16-55.25-33.6-78,70.76Z" transform="translate(-296.22 -176.97)"/><path class="cls-4" d="M379.86,213.83l22.3,82.37,55.25,33.6,70.82-71V213.83Z" transform="translate(-296.22 -176.97)"/><path class="cls-4" d="M457.41,329.8l12,37.16h58.78V258.76Z" transform="translate(-296.22 -176.97)"/><line class="cls-5" y1="188.49" x2="232" y2="188.49"/><text class="cls-6" transform="translate(3 186.53)">0%</text><line class="cls-5" y1="171.35" x2="232" y2="171.35"/><text class="cls-6" transform="translate(3 167.39)">5%</text><line class="cls-5" y1="152.21" x2="232" y2="152.21"/><text class="cls-6" transform="translate(3 148.25)">10%</text><line class="cls-5" y1="133.07" x2="232" y2="133.07"/><text class="cls-6" transform="translate(3 129.11)">15%</text><line class="cls-5" y1="113.93" x2="232" y2="113.93"/><text class="cls-6" transform="translate(3 109.97)">20%</text><line class="cls-5" y1="92.79" x2="232" y2="92.79"/><text class="cls-6" transform="translate(3 88.83)">25%</text><line class="cls-5" y1="73.65" x2="232" y2="73.65"/><text class="cls-6" transform="translate(3 69.69)">30%</text><line class="cls-5" y1="54.51" x2="232" y2="54.51"/><text class="cls-6" transform="translate(3 50.55)">35%</text><line class="cls-5" y1="35.37" x2="232" y2="35.37"/><text class="cls-6" transform="translate(3 31.41)">40%</text><line class="cls-5" x1="35.5" y1="187.99" x2="35.5" y2="34.87"/><text class="cls-7" transform="translate(9.2 199.99)">2003-2006</text><line class="cls-5" x1="101.17" y1="187.99" x2="101.17" y2="34.87"/><text class="cls-7" transform="translate(74.87 199.99)">2007-2010</text><line class="cls-5" x1="166.84" y1="188.99" x2="166.84" y2="35.87"/><text class="cls-7" transform="translate(140.94 199.99)">20<tspan class="cls-8" x="12.24" y="0">1</tspan><tspan x="17.54" y="0">1-2014</tspan></text><line class="cls-5" x1="232.5" y1="187.99" x2="232.5" y2="34.87"/><text class="cls-7" transform="translate(206.2 199.99)">2015-2018</text><g class="cls-9"><path class="cls-10" d="M331.22,294.53,396.89,367l65.67-108,65.67,65.46" transform="translate(-296.22 -176.97)"/></g><path id="point-9-0" class="cls-11" d="M328.22,294.53a3,3,0,1,1,3,3A3,3,0,0,1,328.22,294.53Z" transform="translate(-296.22 -176.97)"/><path id="point-9-1" class="cls-11" d="M393.89,367a3,3,0,1,1,3,3A3,3,0,0,1,393.89,367Z" transform="translate(-296.22 -176.97)"/><path id="point-9-2" class="cls-11" d="M459.56,257a3,3,0,1,1,3,3A3,3,0,0,1,459.56,257Z" transform="translate(-296.22 -176.97)"/><path id="point-9-3" class="cls-11" d="M525.23,322.43a3,3,0,1,1,3,3,3,3,0,0,1-3-3Z" transform="translate(-296.22 -176.97)"/></svg>