<svg id="Layer_1" data-name="Layer 1" xmlns="http://www.w3.org/2000/svg" xmlns:xlink="http://www.w3.org/1999/xlink" viewBox="0 0 258.81 202.77"><defs><style>.cls-1,.cls-10,.cls-5{fill:none;}.cls-2{font-size:14px;fill:#4f5050;font-family:Arial-BoldMT, Arial;font-weight:700;}.cls-3{fill:#fff;}.cls-4{fill:#010101;fill-opacity:0;}.cls-5{stroke:#eeedee;stroke-dasharray:0;}.cls-6,.cls-7{isolation:isolate;fill:#989898;font-family:ArialMT, Arial;}.cls-6{font-size:12px;}.cls-7{font-size:11px;}.cls-8{letter-spacing:-0.07em;}.cls-9{clip-path:url(#clip-path);}.cls-10{stroke:#3ebda7;stroke-width:2px;}.cls-11{fill:#3ebda7;}</style><clipPath id="clip-path" transform="translate(-296.59 -176.82)"><rect class="cls-1" x="296.59" y="191.89" width="232" height="183.12"/></clipPath></defs><title>figure_Artists</title><text class="cls-2" transform="translate(0 12.01)">Artists</text><rect class="cls-3" y="35.07" width="232" height="153.12"/><path class="cls-4" d="M364.42,365V235.58l-7.08-23.69H296.59V365Z" transform="translate(-296.59 -176.82)"/><path class="cls-4" d="M364.42,235.58V365h77.42Z" transform="translate(-296.59 -176.82)"/><path class="cls-4" d="M357.34,211.89l7.08,23.69L441.84,365h56L490.2,211.89Z" transform="translate(-296.59 -176.82)"/><path class="cls-4" d="M490.2,211.89,497.79,365h30.8V211.89Z" transform="translate(-296.59 -176.82)"/><line class="cls-5" y1="188.69" x2="232" y2="188.69"/><text class="cls-6" transform="translate(3 184.73)">0%</text><line class="cls-5" y1="169.55" x2="232" y2="169.55"/><text class="cls-6" transform="translate(3 165.59)">5%</text><line class="cls-5" y1="150.41" x2="232" y2="150.41"/><text class="cls-6" transform="translate(3 146.45)">10%</text><line class="cls-5" y1="131.27" x2="232" y2="131.27"/><text class="cls-6" transform="translate(3 127.31)">15%</text><line class="cls-5" y1="110.13" x2="232" y2="110.13"/><text class="cls-6" transform="translate(3 106.17)">20%</text><line class="cls-5" y1="90.99" x2="232" y2="90.99"/><text class="cls-6" transform="translate(3 87.03)">25%</text><line class="cls-5" y1="71.85" x2="232" y2="71.85"/><text class="cls-6" transform="translate(3 67.89)">30%</text><line class="cls-5" y1="52.71" x2="232" y2="52.71"/><text class="cls-6" transform="translate(3 48.75)">35%</text><line class="cls-5" y1="35.57" x2="232" y2="35.57"/><text class="cls-6" transform="translate(3 29.61)">40%</text><line class="cls-5" x1="35.5" y1="188.19" x2="35.5" y2="35.07"/><text class="cls-7" transform="translate(9.2 199.19)">2003-2006</text><line class="cls-5" x1="101.17" y1="188.19" x2="101.17" y2="35.07"/><text class="cls-7" transform="translate(74.87 199.19)">2007-2010</text><line class="cls-5" x1="166.84" y1="188.19" x2="166.84" y2="35.07"/><text class="cls-7" transform="translate(140.94 199.19)">20<tspan class="cls-8" x="12.24" y="0">1</tspan><tspan x="17.54" y="0">1-2014</tspan></text><line class="cls-5" x1="232.5" y1="188.19" x2="232.5" y2="35.07"/><text class="cls-7" transform="translate(206.2 199.19)">2015-2018</text><g class="cls-9"><path class="cls-10" d="M331.59,365h65.67l65.67-39.28,65.66-3.25" transform="translate(-296.59 -176.82)"/></g><path id="point-0-0" class="cls-11" d="M328.59,365a3,3,0,1,1,3,3A3,3,0,0,1,328.59,365Z" transform="translate(-296.59 -176.82)"/><path id="point-0-1" class="cls-11" d="M394.26,365a3,3,0,1,1,3,3A3,3,0,0,1,394.26,365Z" transform="translate(-296.59 -176.82)"/><path id="point-0-2" class="cls-11" d="M459.93,325.74a3,3,0,1,1,3,3A3,3,0,0,1,459.93,325.74Z" transform="translate(-296.59 -176.82)"/><path id="point-0-3" class="cls-11" d="M525.59,322.49a3,3,0,1,1,3,3,3,3,0,0,1-3-3Z" transform="translate(-296.59 -176.82)"/></svg>