<svg id="Layer_1" data-name="Layer 1" xmlns="http://www.w3.org/2000/svg" xmlns:xlink="http://www.w3.org/1999/xlink" viewBox="0 0 258.81 202.57"><defs><style>.cls-1,.cls-10,.cls-6{fill:none;}.cls-2{font-size:14px;fill:#4f5050;font-family:Arial-BoldMT, Arial;font-weight:700;}.cls-3{fill:#fff;}.cls-4{fill:#010101;fill-opacity:0;}.cls-5,.cls-7{isolation:isolate;fill:#989898;font-family:ArialMT, Arial;}.cls-5{font-size:12px;}.cls-6{stroke:#eeedee;stroke-dasharray:0;}.cls-7{font-size:11px;}.cls-8{letter-spacing:-0.07em;}.cls-9{clip-path:url(#clip-path);}.cls-10{stroke:#3ebda7;stroke-width:2px;}.cls-11{fill:#3ebda7;}</style><clipPath id="clip-path" transform="translate(-296.72 -176.97)"><rect class="cls-1" x="296.72" y="191.84" width="232" height="183.12"/></clipPath></defs><title>figure_Movie Directors</title><text class="cls-2" transform="translate(0 12.01)">Movie Directors</text><rect class="cls-3" y="34.87" width="232" height="153.12"/><path class="cls-4" d="M389.66,365,296.72,258.68V365Z" transform="translate(-296.72 -176.97)"/><path class="cls-4" d="M296.72,258.68,389.66,365h16.19l61.09-84.24,7.81-68.88h-178Z" transform="translate(-296.72 -176.97)"/><path class="cls-4" d="M508.93,365l-42-84.24L405.85,365Z" transform="translate(-296.72 -176.97)"/><path class="cls-4" d="M466.94,280.72l42,84.24h19.79V211.84h-54Z" transform="translate(-296.72 -176.97)"/><text class="cls-5" transform="translate(3 184.53)">0%</text><line class="cls-6" y1="169.35" x2="232" y2="169.35"/><line class="cls-6" y1="187.7" x2="232" y2="187.7"/><text class="cls-5" transform="translate(3 165.39)">5%</text><line class="cls-6" y1="150.21" x2="232" y2="150.21"/><text class="cls-5" transform="translate(3 146.25)">10%</text><line class="cls-6" y1="131.07" x2="232" y2="131.07"/><text class="cls-5" transform="translate(3 127.11)">15%</text><line class="cls-6" y1="111.93" x2="232" y2="111.93"/><text class="cls-5" transform="translate(3 107.97)">20%</text><line class="cls-6" y1="92.79" x2="232" y2="92.79"/><text class="cls-5" transform="translate(3 88.83)">25%</text><line class="cls-6" y1="73.65" x2="232" y2="73.65"/><text class="cls-5" transform="translate(3 69.69)">30%</text><line class="cls-6" y1="54.51" x2="232" y2="54.51"/><text class="cls-5" transform="translate(3 50.55)">35%</text><line class="cls-6" y1="35.37" x2="232" y2="35.37"/><text class="cls-5" transform="translate(3 32.41)">40%</text><line class="cls-6" x1="35.5" y1="187.99" x2="35.5" y2="34.87"/><text class="cls-7" transform="translate(9.2 198.99)">2003-2006</text><line class="cls-6" x1="101.17" y1="187.99" x2="101.17" y2="34.87"/><text class="cls-7" transform="translate(74.87 198.99)">2007-2010</text><line class="cls-6" x1="166.84" y1="187.99" x2="166.84" y2="34.87"/><text class="cls-7" transform="translate(140.94 198.99)">20<tspan class="cls-8" x="12.24" y="0">1</tspan><tspan x="17.54" y="0">1-2014</tspan></text><line class="cls-6" x1="232.5" y1="187.99" x2="232.5" y2="34.87"/><text class="cls-7" transform="translate(206.2 198.99)">2015-2018</text><g class="cls-9"><path class="cls-10" d="M331.72,365l65.67-57.42,65.66,47.62,65.67-32.73" transform="translate(-296.72 -176.97)"/></g><path id="point-7-0" class="cls-11" d="M328.72,365a3,3,0,1,1,3,3A3,3,0,0,1,328.72,365Z" transform="translate(-296.72 -176.97)"/><path id="point-7-1" class="cls-11" d="M394.39,307.54a3,3,0,1,1,3,3A3,3,0,0,1,394.39,307.54Z" transform="translate(-296.72 -176.97)"/><path id="point-7-2" class="cls-11" d="M460.05,355.16a3,3,0,1,1,3,3A3,3,0,0,1,460.05,355.16Z" transform="translate(-296.72 -176.97)"/><path id="point-7-3" class="cls-11" d="M525.72,322.43a3,3,0,1,1,3,3,3,3,0,0,1-3-3Z" transform="translate(-296.72 -176.97)"/></svg>