<svg id="Layer_1" data-name="Layer 1" xmlns="http://www.w3.org/2000/svg" xmlns:xlink="http://www.w3.org/1999/xlink" viewBox="0 0 258.81 202.77"><defs><style>.cls-1,.cls-10,.cls-5{fill:none;}.cls-2{font-size:14px;fill:#4f5050;font-family:Arial-BoldMT, Arial;font-weight:700;}.cls-3{fill:#fff;}.cls-4{fill:#010101;fill-opacity:0;}.cls-5{stroke:#eeedee;stroke-dasharray:0;}.cls-6,.cls-7{isolation:isolate;fill:#989898;font-family:ArialMT, Arial;}.cls-6{font-size:12px;}.cls-7{font-size:11px;}.cls-8{letter-spacing:-0.07em;}.cls-9{clip-path:url(#clip-path);}.cls-10{stroke:#3ebda7;stroke-width:2px;}.cls-11{fill:#3ebda7;}</style><clipPath id="clip-path" transform="translate(-296.84 -176.82)"><rect class="cls-1" x="296.84" y="191.89" width="232" height="183.12"/></clipPath></defs><title>figure_EB</title><text class="cls-2" transform="translate(0 12.01)">Enterpreneurs &amp; Businessmen</text><rect class="cls-3" y="35.07" width="232" height="153.12"/><path class="cls-4" d="M355.47,365,386.8,211.89h-90V365Z" transform="translate(-296.84 -176.82)"/><path class="cls-4" d="M437.52,365,412.35,211.89H386.8L355.47,365Z" transform="translate(-296.84 -176.82)"/><path class="cls-4" d="M412.35,211.89,437.52,365h40.15l51.17-68.48V211.89Z" transform="translate(-296.84 -176.82)"/><path class="cls-4" d="M528.84,296.54,477.67,365h51.17Z" transform="translate(-296.84 -176.82)"/><line class="cls-5" y1="188.69" x2="232" y2="188.69"/><text class="cls-6" transform="translate(3 184.73)">0%</text><line class="cls-5" y1="169.55" x2="232" y2="169.55"/><text class="cls-6" transform="translate(3 165.59)">5%</text><line class="cls-5" y1="150.41" x2="232" y2="150.41"/><text class="cls-6" transform="translate(3 146.45)">10%</text><line class="cls-5" y1="131.27" x2="232" y2="131.27"/><text class="cls-6" transform="translate(3 127.31)">15%</text><line class="cls-5" y1="112.13" x2="232" y2="112.13"/><text class="cls-6" transform="translate(3 108.17)">20%</text><line class="cls-5" y1="92.99" x2="232" y2="92.99"/><text class="cls-6" transform="translate(3 89.03)">25%</text><line class="cls-5" y1="73.85" x2="232" y2="73.85"/><text class="cls-6" transform="translate(3 69.89)">30%</text><line class="cls-5" y1="54.71" x2="232" y2="54.71"/><text class="cls-6" transform="translate(3 50.75)">35%</text><line class="cls-5" y1="35.57" x2="232" y2="35.57"/><text class="cls-6" transform="translate(3 31.61)">40%</text><line class="cls-5" x1="35.5" y1="188.19" x2="35.5" y2="35.07"/><text class="cls-7" transform="translate(9.2 199.19)">2003-2006</text><line class="cls-5" x1="101.17" y1="188.19" x2="101.17" y2="35.07"/><text class="cls-7" transform="translate(74.87 199.19)">2007-2010</text><line class="cls-5" x1="166.84" y1="188.19" x2="166.84" y2="35.07"/><text class="cls-7" transform="translate(140.94 199.19)">20<tspan class="cls-8" x="12.24" y="0">1</tspan><tspan x="17.54" y="0">1-2014</tspan></text><line class="cls-5" x1="232.5" y1="188.19" x2="232.5" y2="35.07"/><text class="cls-7" transform="translate(206.2 199.19)">2015-2018</text><g class="cls-9"><path class="cls-10" d="M331.84,313.3l65.67,13.44,65.67-10.8L528.84,365" transform="translate(-296.84 -176.82)"/></g><path id="point-5-0" class="cls-11" d="M328.84,313.3a3,3,0,1,1,3,3A3,3,0,0,1,328.84,313.3Z" transform="translate(-296.84 -176.82)"/><path id="point-5-1" class="cls-11" d="M394.51,326.74a3,3,0,1,1,3,3A3,3,0,0,1,394.51,326.74Z" transform="translate(-296.84 -176.82)"/><path id="point-5-2" class="cls-11" d="M460.18,315.94a3,3,0,1,1,3,3A3,3,0,0,1,460.18,315.94Z" transform="translate(-296.84 -176.82)"/><path id="point-5-3" class="cls-11" d="M525.84,365a3,3,0,1,1,3,3A3,3,0,0,1,525.84,365Z" transform="translate(-296.84 -176.82)"/></svg>