<svg id="Layer_1" data-name="Layer 1" xmlns="http://www.w3.org/2000/svg" xmlns:xlink="http://www.w3.org/1999/xlink" viewBox="0 0 258.91 203.71"><defs><style>.cls-1,.cls-10,.cls-5{fill:none;}.cls-2{font-size:14px;fill:#4f5050;font-family:Arial-BoldMT, Arial;font-weight:700;}.cls-3{fill:#fff;}.cls-4{fill:#010101;fill-opacity:0;}.cls-5{stroke:#eeedee;stroke-dasharray:0;}.cls-6,.cls-7{isolation:isolate;fill:#989898;font-family:ArialMT, Arial;}.cls-6{font-size:12px;}.cls-7{font-size:11px;}.cls-8{letter-spacing:-0.07em;}.cls-9{clip-path:url(#clip-path);}.cls-10{stroke:#3ebda7;stroke-width:2px;}.cls-11{fill:#3ebda7;}</style><clipPath id="clip-path" transform="translate(-296.6 -176.82)"><rect class="cls-1" x="296.71" y="191.83" width="232" height="183.12"/></clipPath></defs><title>figure_Celebrities</title><text class="cls-2" transform="translate(0 12.01)">Celebrities</text><rect class="cls-3" x="0.1" y="35.01" width="232" height="153.12"/><path class="cls-4" d="M296.71,336.28,406.54,211.83H296.71Z" transform="translate(-296.6 -176.82)"/><path class="cls-4" d="M432.51,365,428,211.83H406.54L296.71,336.28V365Z" transform="translate(-296.6 -176.82)"/><path class="cls-4" d="M428,211.83,432.51,365h18l78.24-79.85V211.83Z" transform="translate(-296.6 -176.82)"/><path class="cls-4" d="M528.71,285.11,450.47,365h78.24Z" transform="translate(-296.6 -176.82)"/><line class="cls-5" x1="0.1" y1="188.63" x2="232.11" y2="188.63"/><text class="cls-6" transform="translate(3.1 184.67)">0%</text><line class="cls-5" x1="0.1" y1="169.49" x2="232.11" y2="169.49"/><text class="cls-6" transform="translate(3.1 165.53)">5%</text><line class="cls-5" x1="0.1" y1="150.35" x2="232.11" y2="150.35"/><text class="cls-6" transform="translate(3.1 146.39)">10%</text><line class="cls-5" x1="0.1" y1="131.21" x2="232.11" y2="131.21"/><text class="cls-6" transform="translate(3.1 127.25)">15%</text><line class="cls-5" x1="0.1" y1="112.07" x2="232.11" y2="112.07"/><text class="cls-6" transform="translate(3.1 108.11)">20%</text><line class="cls-5" x1="0.1" y1="92.93" x2="232.11" y2="92.93"/><text class="cls-6" transform="translate(3.1 88.97)">25%</text><line class="cls-5" x1="0.1" y1="73.79" x2="232.11" y2="73.79"/><text class="cls-6" transform="translate(3.1 69.83)">30%</text><line class="cls-5" x1="0.1" y1="54.65" x2="232.11" y2="54.65"/><text class="cls-6" transform="translate(3.1 50.69)">35%</text><line class="cls-5" x1="0.1" y1="35.51" x2="232.11" y2="35.51"/><text class="cls-6" transform="translate(3.1 31.55)">40%</text><line class="cls-5" x1="35.6" y1="188.13" x2="35.6" y2="35.01"/><text class="cls-7" transform="translate(9.3 200.13)">2003-2006</text><line class="cls-5" x1="101.27" y1="188.13" x2="101.27" y2="35.01"/><text class="cls-7" transform="translate(74.97 200.13)">2007-2010</text><line class="cls-5" x1="166.94" y1="188.13" x2="166.94" y2="35.01"/><text class="cls-7" transform="translate(141.05 200.13)">20<tspan class="cls-8" x="12.24" y="0">1</tspan><tspan x="17.54" y="0">1-2014</tspan></text><line class="cls-5" x1="232.61" y1="188.13" x2="232.61" y2="35.01"/><text class="cls-7" transform="translate(206.31 200.13)">2015-2018</text><g class="cls-9"><path class="cls-10" d="M331.71,230.44l65.67,58,65.66-2,65.67,64.35" transform="translate(-296.6 -176.82)"/></g><path id="point-3-0" class="cls-11" d="M328.71,230.44a3,3,0,1,1,3,3A3,3,0,0,1,328.71,230.44Z" transform="translate(-296.6 -176.82)"/><path id="point-3-1" class="cls-11" d="M394.38,288.4a3,3,0,1,1,3,3A3,3,0,0,1,394.38,288.4Z" transform="translate(-296.6 -176.82)"/><path id="point-3-2" class="cls-11" d="M460,286.44a3,3,0,1,1,3,3A3,3,0,0,1,460,286.44Z" transform="translate(-296.6 -176.82)"/><path id="point-3-3" class="cls-11" d="M525.71,350.79a3,3,0,1,1,3,3A3,3,0,0,1,525.71,350.79Z" transform="translate(-296.6 -176.82)"/></svg>