<svg id="Layer_1" data-name="Layer 1" xmlns="http://www.w3.org/2000/svg" xmlns:xlink="http://www.w3.org/1999/xlink" viewBox="0 0 258.81 202.62"><defs><style>.cls-1,.cls-11,.cls-6{fill:none;}.cls-2{font-size:14px;fill:#4f5050;font-family:Arial-BoldMT, Arial;font-weight:700;}.cls-3{letter-spacing:-0.02em;}.cls-4{fill:#fff;}.cls-5{fill:#010101;fill-opacity:0;}.cls-6{stroke:#eeedee;stroke-dasharray:0;}.cls-7,.cls-8{isolation:isolate;fill:#989898;font-family:ArialMT, Arial;}.cls-7{font-size:12px;}.cls-8{font-size:11px;}.cls-9{letter-spacing:-0.07em;}.cls-10{clip-path:url(#clip-path);}.cls-11{stroke:#3ebda7;stroke-width:2px;}.cls-12{fill:#3ebda7;}</style><clipPath id="clip-path" transform="translate(-296.44 -176.97)"><rect class="cls-1" x="296.44" y="191.89" width="232" height="183.12"/></clipPath></defs><title>figure_Writers</title><text class="cls-2" transform="translate(0 12.01)"><tspan class="cls-3">W</tspan><tspan x="12.96" y="0">riters</tspan></text><rect class="cls-4" y="34.92" width="232" height="153.12"/><path class="cls-5" d="M388.57,365,296.44,236.53V365Z" transform="translate(-296.44 -176.97)"/><path class="cls-5" d="M296.44,236.53,388.57,365h34.61l18.41-144.86L439,211.89H296.44Z" transform="translate(-296.44 -176.97)"/><path class="cls-5" d="M528.45,333.81,441.59,220.16,423.18,365H528.45Z" transform="translate(-296.44 -176.97)"/><path class="cls-5" d="M439,211.89l2.64,8.27,86.86,113.65V211.89Z" transform="translate(-296.44 -176.97)"/><line class="cls-6" y1="188.55" x2="232" y2="188.55"/><text class="cls-7" transform="translate(3 184.59)">0%</text><line class="cls-6" y1="169.41" x2="232" y2="169.41"/><text class="cls-7" transform="translate(3 165.45)">5%</text><line class="cls-6" y1="150.27" x2="232" y2="150.27"/><text class="cls-7" transform="translate(3 146.31)">10%</text><line class="cls-6" y1="131.13" x2="232" y2="131.13"/><text class="cls-7" transform="translate(3 127.17)">15%</text><line class="cls-6" y1="111.99" x2="232" y2="111.99"/><text class="cls-7" transform="translate(3 108.03)">20%</text><line class="cls-6" y1="92.85" x2="232" y2="92.85"/><text class="cls-7" transform="translate(3 88.89)">25%</text><line class="cls-6" y1="73.71" x2="232" y2="73.71"/><text class="cls-7" transform="translate(3 69.75)">30%</text><line class="cls-6" y1="54.57" x2="232" y2="54.57"/><text class="cls-7" transform="translate(3 50.61)">35%</text><line class="cls-6" y1="35.42" x2="232" y2="35.42"/><text class="cls-7" transform="translate(3 31.46)">40%</text><line class="cls-6" x1="35.5" y1="188.05" x2="35.5" y2="34.92"/><text class="cls-8" transform="translate(9.2 199.05)">2003-2006</text><line class="cls-6" x1="101.17" y1="188.05" x2="101.17" y2="34.92"/><text class="cls-8" transform="translate(74.87 199.05)">2007-2010</text><line class="cls-6" x1="166.84" y1="188.05" x2="166.84" y2="34.92"/><text class="cls-8" transform="translate(140.94 199.05)">20<tspan class="cls-9" x="12.24" y="0">1</tspan><tspan x="17.54" y="0">1-2014</tspan></text><line class="cls-6" x1="232.5" y1="188.05" x2="232.5" y2="34.92"/><text class="cls-8" transform="translate(206.2 199.05)">2015-2018</text><g class="cls-10"><path class="cls-11" d="M331.44,354.68l65.67-47.08,65.67,8.34,65.67-50.19" transform="translate(-296.44 -176.97)"/></g><path id="point-13-0" class="cls-12" d="M328.44,354.68a3,3,0,1,1,3,3A3,3,0,0,1,328.44,354.68Z" transform="translate(-296.44 -176.97)"/><path id="point-13-1" class="cls-12" d="M394.11,307.6a3,3,0,1,1,3,3A3,3,0,0,1,394.11,307.6Z" transform="translate(-296.44 -176.97)"/><path id="point-13-2" class="cls-12" d="M459.78,315.94a3,3,0,1,1,3,3A3,3,0,0,1,459.78,315.94Z" transform="translate(-296.44 -176.97)"/><path id="point-13-3" class="cls-12" d="M525.45,265.75a3,3,0,1,1,3,3A3,3,0,0,1,525.45,265.75Z" transform="translate(-296.44 -176.97)"/></svg>