<svg id="Layer_1" data-name="Layer 1" xmlns="http://www.w3.org/2000/svg" xmlns:xlink="http://www.w3.org/1999/xlink" viewBox="0 0 258.81 202.71"><defs><style>.cls-1,.cls-11,.cls-6{fill:none;}.cls-2{font-size:14px;fill:#4f5050;font-family:Arial-BoldMT, Arial;font-weight:700;}.cls-3{letter-spacing:-0.04em;}.cls-4{fill:#fff;}.cls-5{fill:#010101;fill-opacity:0;}.cls-6{stroke:#eeedee;stroke-dasharray:0;}.cls-7,.cls-8{isolation:isolate;fill:#989898;font-family:ArialMT, Arial;}.cls-7{font-size:12px;}.cls-8{font-size:11px;}.cls-9{letter-spacing:-0.07em;}.cls-10{clip-path:url(#clip-path);}.cls-11{stroke:#73ae47;stroke-width:2px;}.cls-12{fill:#73ae47;}</style><clipPath id="clip-path" transform="translate(-264.33 -205.35)"><rect class="cls-1" x="264.33" y="219.36" width="232" height="183.12"/></clipPath></defs><title>Politics_Warfare</title><text class="cls-2" transform="translate(0 12.01)"><tspan class="cls-3">W</tspan><tspan x="12.69" y="0">arfare</tspan></text><rect class="cls-4" y="34.01" width="232" height="153.12"/><path class="cls-5" d="M322,392.48,384.28,280.4l8.82-41H264.33V392.48Z" transform="translate(-264.33 -205.35)"/><path class="cls-5" d="M398.35,392.48,384.28,280.4,322,392.48Z" transform="translate(-264.33 -205.35)"/><path class="cls-5" d="M384.28,280.4l14.07,112.08H463L482.2,239.36H393.1Z" transform="translate(-264.33 -205.35)"/><path class="cls-5" d="M482.2,239.36,463,392.48h33.35V239.36Z" transform="translate(-264.33 -205.35)"/><line class="cls-6" y1="187.63" x2="232" y2="187.63"/><text class="cls-7" transform="translate(3 183.67)">0%</text><line class="cls-6" y1="162.11" x2="232" y2="162.11"/><text class="cls-7" transform="translate(3 158.15)">10%</text><line class="cls-6" y1="136.59" x2="232" y2="136.59"/><text class="cls-7" transform="translate(3 132.63)">20%</text><line class="cls-6" y1="111.07" x2="232" y2="111.07"/><text class="cls-7" transform="translate(3 107.11)">30%</text><line class="cls-6" y1="85.55" x2="232" y2="85.55"/><text class="cls-7" transform="translate(3 81.59)">40%</text><line class="cls-6" y1="60.03" x2="232" y2="60.03"/><text class="cls-7" transform="translate(3 56.07)">50%</text><line class="cls-6" y1="34.51" x2="232" y2="34.51"/><text class="cls-7" transform="translate(3 30.55)">60%</text><line class="cls-6" x1="35.5" y1="187.13" x2="35.5" y2="34.01"/><text class="cls-8" transform="translate(9.2 199.13)">2003-2006</text><line class="cls-6" x1="101.17" y1="187.13" x2="101.17" y2="34.01"/><text class="cls-8" transform="translate(74.87 199.13)">2007-2010</text><line class="cls-6" x1="166.84" y1="187.13" x2="166.84" y2="34.01"/><text class="cls-8" transform="translate(140.94 199.13)">20<tspan class="cls-9" x="12.24" y="0">1</tspan><tspan x="17.54" y="0">1-2014</tspan></text><line class="cls-6" x1="232.5" y1="187.13" x2="232.5" y2="34.01"/><text class="cls-8" transform="translate(206.2 199.13)">2015-2018</text><g class="cls-10"><path class="cls-11" d="M299.33,356,365,392.48l65.66-8.24,65.67,8.24" transform="translate(-264.33 -205.35)"/></g><path id="point-9-0" class="cls-12" d="M296.33,356a3,3,0,1,1,3,3A3,3,0,0,1,296.33,356Z" transform="translate(-264.33 -205.35)"/><path id="point-9-1" class="cls-12" d="M362,392.48a3,3,0,1,1,3,3A3,3,0,0,1,362,392.48Z" transform="translate(-264.33 -205.35)"/><path id="point-9-2" class="cls-12" d="M427.66,384.24a3,3,0,1,1,3,3A3,3,0,0,1,427.66,384.24Z" transform="translate(-264.33 -205.35)"/><path id="point-9-3" class="cls-12" d="M493.33,392.48a3,3,0,1,1,3,3A3,3,0,0,1,493.33,392.48Z" transform="translate(-264.33 -205.35)"/></svg>