<svg id="Layer_1" data-name="Layer 1" xmlns="http://www.w3.org/2000/svg" xmlns:xlink="http://www.w3.org/1999/xlink" viewBox="0 0 258.81 202.82"><defs><style>.cls-1,.cls-10,.cls-5{fill:none;}.cls-2{font-size:14px;fill:#4f5050;font-family:Arial-BoldMT, Arial;font-weight:700;}.cls-3{fill:#fff;}.cls-4{fill:#010101;fill-opacity:0;}.cls-5{stroke:#eeedee;stroke-dasharray:0;}.cls-6,.cls-7{isolation:isolate;fill:#989898;font-family:ArialMT, Arial;}.cls-6{font-size:12px;}.cls-7{font-size:11px;}.cls-8{letter-spacing:-0.07em;}.cls-9{clip-path:url(#clip-path);}.cls-10{stroke:#73ae47;stroke-width:2px;}.cls-11{fill:#73ae47;}</style><clipPath id="clip-path" transform="translate(-296.7 -177.24)"><rect class="cls-1" x="296.7" y="191.36" width="232" height="183.12"/></clipPath></defs><title>Politics_Foreign Politics</title><text class="cls-2" transform="translate(0 12.01)">Foreign Politics</text><rect class="cls-3" y="34.12" width="232" height="153.12"/><path class="cls-4" d="M363.71,364.48l13.42-84.67-46.06-68.45H296.7V364.48Z" transform="translate(-296.7 -177.24)"/><path class="cls-4" d="M504.51,364.48,377.13,279.81l-13.42,84.67Z" transform="translate(-296.7 -177.24)"/><path class="cls-4" d="M331.07,211.36l46.06,68.45,127.38,84.67H528.7V294.33l-54.33-83Z" transform="translate(-296.7 -177.24)"/><path class="cls-4" d="M474.37,211.36l54.33,83v-83Z" transform="translate(-296.7 -177.24)"/><line class="cls-5" y1="187.74" x2="232" y2="187.74"/><text class="cls-6" transform="translate(3 183.78)">0%</text><line class="cls-5" y1="162.22" x2="232" y2="162.22"/><text class="cls-6" transform="translate(3 158.26)">10%</text><line class="cls-5" y1="136.7" x2="232" y2="136.7"/><text class="cls-6" transform="translate(3 132.74)">20%</text><line class="cls-5" y1="111.18" x2="232" y2="111.18"/><text class="cls-6" transform="translate(3 107.22)">30%</text><line class="cls-5" y1="85.66" x2="232" y2="85.66"/><text class="cls-6" transform="translate(3 81.7)">40%</text><line class="cls-5" y1="60.14" x2="232" y2="60.14"/><text class="cls-6" transform="translate(3 56.18)">50%</text><line class="cls-5" y1="34.62" x2="232" y2="34.62"/><text class="cls-6" transform="translate(3 30.66)">60%</text><line class="cls-5" x1="35.5" y1="187.24" x2="35.5" y2="34.12"/><text class="cls-7" transform="translate(9.2 199.24)">2003-2006</text><line class="cls-5" x1="101.17" y1="187.24" x2="101.17" y2="34.12"/><text class="cls-7" transform="translate(74.87 199.24)">2007-2010</text><line class="cls-5" x1="166.84" y1="187.24" x2="166.84" y2="34.12"/><text class="cls-7" transform="translate(140.94 199.24)">20<tspan class="cls-8" x="12.24" y="0">1</tspan><tspan x="17.54" y="0">1-2014</tspan></text><line class="cls-5" x1="232.5" y1="187.24" x2="232.5" y2="34.12"/><text class="cls-7" transform="translate(206.2 199.24)">2015-2018</text><g class="cls-9"><path class="cls-10" d="M331.7,354.07l65.67,10.41L463,265.69l65.66-43" transform="translate(-296.7 -177.24)"/></g><path id="point-2-0" class="cls-11" d="M328.7,354.07a3,3,0,1,1,3,3A3,3,0,0,1,328.7,354.07Z" transform="translate(-296.7 -177.24)"/><path id="point-2-1" class="cls-11" d="M394.37,364.48a3,3,0,1,1,3,3A3,3,0,0,1,394.37,364.48Z" transform="translate(-296.7 -177.24)"/><path id="point-2-2" class="cls-11" d="M460,265.69a3,3,0,1,1,3,3A3,3,0,0,1,460,265.69Z" transform="translate(-296.7 -177.24)"/><path id="point-2-3" class="cls-11" d="M525.7,222.69a3,3,0,1,1,3,3A3,3,0,0,1,525.7,222.69Z" transform="translate(-296.7 -177.24)"/></svg>