<svg id="Layer_1" data-name="Layer 1" xmlns="http://www.w3.org/2000/svg" xmlns:xlink="http://www.w3.org/1999/xlink" viewBox="0 0 258.87 202.82"><defs><style>.cls-1,.cls-10,.cls-5{fill:none;}.cls-2{font-size:14px;fill:#4f5050;font-family:Arial-BoldMT, Arial;font-weight:700;}.cls-3{fill:#fff;}.cls-4{fill:#010101;fill-opacity:0;}.cls-5{stroke:#eeedee;stroke-dasharray:0;}.cls-6,.cls-7{isolation:isolate;fill:#989898;font-family:ArialMT, Arial;}.cls-6{font-size:12px;}.cls-7{font-size:11px;}.cls-8{letter-spacing:-0.07em;}.cls-9{clip-path:url(#clip-path);}.cls-10{stroke:#73ae47;stroke-width:2px;}.cls-11{fill:#73ae47;}</style><clipPath id="clip-path" transform="translate(-264.07 -205.24)"><rect class="cls-1" x="264.13" y="219.36" width="232" height="183.12"/></clipPath></defs><title>Politics_Government</title><text class="cls-2" transform="translate(0 12.01)">Government</text><rect class="cls-3" x="0.06" y="34.12" width="232" height="153.12"/><path class="cls-4" d="M331.23,392.48l8.1-153.12h-75.2V392.48Z" transform="translate(-264.07 -205.24)"/><path class="cls-4" d="M404.76,392.48,356.32,239.36h-17l-8.1,153.12Z" transform="translate(-264.07 -205.24)"/><path class="cls-4" d="M356.32,239.36l48.44,153.12h50.29l41.09-82V239.36Z" transform="translate(-264.07 -205.24)"/><path class="cls-4" d="M496.14,310.53l-41.09,82h41.09Z" transform="translate(-264.07 -205.24)"/><line class="cls-5" x1="0.06" y1="187.74" x2="232.06" y2="187.74"/><text class="cls-6" transform="translate(3.06 183.78)">0%</text><line class="cls-5" x1="0.06" y1="162.22" x2="232.06" y2="162.22"/><text class="cls-6" transform="translate(3.06 158.26)">10%</text><line class="cls-5" x1="0.06" y1="136.7" x2="232.06" y2="136.7"/><text class="cls-6" transform="translate(3.06 132.74)">20%</text><line class="cls-5" x1="0.06" y1="111.18" x2="232.06" y2="111.18"/><text class="cls-6" transform="translate(3.06 107.22)">30%</text><line class="cls-5" x1="0.06" y1="85.66" x2="232.06" y2="85.66"/><text class="cls-6" transform="translate(3.06 81.7)">40%</text><line class="cls-5" x1="0.06" y1="60.14" x2="232.06" y2="60.14"/><text class="cls-6" transform="translate(3.06 56.18)">50%</text><line class="cls-5" x1="0.06" y1="34.62" x2="232.06" y2="34.62"/><text class="cls-6" transform="translate(3.06 30.66)">60%</text><line class="cls-5" x1="35.56" y1="187.24" x2="35.56" y2="34.12"/><text class="cls-7" transform="translate(9.26 199.24)">2003-2006</text><line class="cls-5" x1="101.23" y1="187.24" x2="101.23" y2="34.12"/><text class="cls-7" transform="translate(74.92 199.24)">2007-2010</text><line class="cls-5" x1="166.89" y1="187.24" x2="166.89" y2="34.12"/><text class="cls-7" transform="translate(141 199.24)">20<tspan class="cls-8" x="12.24" y="0">1</tspan><tspan x="17.54" y="0">1-2014</tspan></text><line class="cls-5" x1="232.56" y1="187.24" x2="232.56" y2="34.12"/><text class="cls-7" transform="translate(206.26 199.24)">2015-2018</text><g class="cls-9"><path class="cls-10" d="M299.13,376.86l65.67,3.48,65.67-20.78,65.67,32.92" transform="translate(-264.07 -205.24)"/></g><path id="point-3-0" class="cls-11" d="M296.13,376.86a3,3,0,1,1,3,3A3,3,0,0,1,296.13,376.86Z" transform="translate(-264.07 -205.24)"/><path id="point-3-1" class="cls-11" d="M361.8,380.34a3,3,0,1,1,3,3A3,3,0,0,1,361.8,380.34Z" transform="translate(-264.07 -205.24)"/><path id="point-3-2" class="cls-11" d="M427.47,359.56a3,3,0,1,1,6,0h0a3,3,0,0,1-6,0Z" transform="translate(-264.07 -205.24)"/><path id="point-3-3" class="cls-11" d="M493.14,392.48a3,3,0,1,1,3,3A3,3,0,0,1,493.14,392.48Z" transform="translate(-264.07 -205.24)"/></svg>