<svg id="Layer_1" data-name="Layer 1" xmlns="http://www.w3.org/2000/svg" xmlns:xlink="http://www.w3.org/1999/xlink" viewBox="0 0 258.81 202.82"><defs><style>.cls-1,.cls-10,.cls-5{fill:none;}.cls-2{font-size:14px;fill:#4f5050;font-family:Arial-BoldMT, Arial;font-weight:700;}.cls-3{fill:#fff;}.cls-4{fill:#010101;fill-opacity:0;}.cls-5{stroke:#eeedee;stroke-dasharray:0;}.cls-6,.cls-7{isolation:isolate;fill:#989898;font-family:ArialMT, Arial;}.cls-6{font-size:12px;}.cls-7{font-size:11px;}.cls-8{letter-spacing:-0.07em;}.cls-9{clip-path:url(#clip-path);}.cls-10{stroke:#73ae47;stroke-width:2px;}.cls-11{fill:#73ae47;}</style><clipPath id="clip-path" transform="translate(-296.9 -177.24)"><rect class="cls-1" x="296.9" y="191.37" width="232" height="183.12"/></clipPath></defs><title>Politics_International Politics</title><text class="cls-2" transform="translate(0 12.01)">International Politics</text><rect class="cls-3" y="34.13" width="232" height="153.12"/><path class="cls-4" d="M374.86,364.49l-78-140.38V364.49Z" transform="translate(-296.9 -177.24)"/><path class="cls-4" d="M296.9,224.11l78,140.38h53.67l8.27-153.12H296.9Z" transform="translate(-296.9 -177.24)"/><path class="cls-4" d="M493.94,364.49l10.65-153.12H436.8l-8.27,153.12Z" transform="translate(-296.9 -177.24)"/><path class="cls-4" d="M504.59,211.37,493.94,364.49h35V211.37Z" transform="translate(-296.9 -177.24)"/><line class="cls-5" y1="187.75" x2="232" y2="187.75"/><text class="cls-6" transform="translate(3 183.79)">0%</text><line class="cls-5" y1="162.23" x2="232" y2="162.23"/><text class="cls-6" transform="translate(3 158.27)">10%</text><line class="cls-5" y1="136.71" x2="232" y2="136.71"/><text class="cls-6" transform="translate(3 132.75)">20%</text><line class="cls-5" y1="111.19" x2="232" y2="111.19"/><text class="cls-6" transform="translate(3 107.23)">30%</text><line class="cls-5" y1="85.67" x2="232" y2="85.67"/><text class="cls-6" transform="translate(3 81.71)">40%</text><line class="cls-5" y1="60.15" x2="232" y2="60.15"/><text class="cls-6" transform="translate(3 56.19)">50%</text><line class="cls-5" y1="34.63" x2="232" y2="34.63"/><text class="cls-6" transform="translate(3 30.67)">60%</text><line class="cls-5" x1="35.5" y1="187.25" x2="35.5" y2="34.13"/><text class="cls-7" transform="translate(9.2 199.25)">2003-2006</text><line class="cls-5" x1="101.17" y1="187.25" x2="101.17" y2="34.13"/><text class="cls-7" transform="translate(74.87 199.25)">2007-2010</text><line class="cls-5" x1="166.84" y1="187.25" x2="166.84" y2="34.13"/><text class="cls-7" transform="translate(140.94 199.25)">20<tspan class="cls-8" x="12.24" y="0">1</tspan><tspan x="17.54" y="0">1-2014</tspan></text><line class="cls-5" x1="232.5" y1="187.25" x2="232.5" y2="34.13"/><text class="cls-7" transform="translate(206.2 199.25)">2015-2018</text><g class="cls-9"><path class="cls-10" d="M331.9,364.49,397.57,328l65.67,3.55,65.66,4.57" transform="translate(-296.9 -177.24)"/></g><path id="point-10-0" class="cls-11" d="M328.9,364.49a3,3,0,1,1,3,3A3,3,0,0,1,328.9,364.49Z" transform="translate(-296.9 -177.24)"/><path id="point-10-1" class="cls-11" d="M394.57,328a3,3,0,1,1,3,3A3,3,0,0,1,394.57,328Z" transform="translate(-296.9 -177.24)"/><path id="point-10-2" class="cls-11" d="M460.24,331.57a3,3,0,1,1,6,0h0a3,3,0,0,1-6,0Z" transform="translate(-296.9 -177.24)"/><path id="point-10-3" class="cls-11" d="M525.9,336.14a3,3,0,0,1,6,0h0a3,3,0,0,1-6,0Z" transform="translate(-296.9 -177.24)"/></svg>