<svg id="Layer_1" data-name="Layer 1" xmlns="http://www.w3.org/2000/svg" xmlns:xlink="http://www.w3.org/1999/xlink" viewBox="0 0 258.81 202.76"><defs><style>.cls-1,.cls-10,.cls-5{fill:none;}.cls-2{font-size:14px;fill:#4f5050;font-family:Arial-BoldMT, Arial;font-weight:700;}.cls-3{fill:#fff;}.cls-4{fill:#010101;fill-opacity:0;}.cls-5{stroke:#eeedee;stroke-dasharray:0;}.cls-6,.cls-7{isolation:isolate;fill:#989898;font-family:ArialMT, Arial;}.cls-6{font-size:12px;}.cls-7{font-size:11px;}.cls-8{letter-spacing:-0.07em;}.cls-9{clip-path:url(#clip-path);}.cls-10{stroke:#73ae47;stroke-width:2px;}.cls-11{fill:#73ae47;}</style><clipPath id="clip-path" transform="translate(-264.44 -205.24)"><rect class="cls-1" x="264.44" y="219.3" width="232" height="183.12"/></clipPath></defs><title>Corruption</title><text class="cls-2" transform="translate(0 12.01)">Corruption</text><rect class="cls-3" y="34.06" width="232" height="153.12"/><path class="cls-4" d="M324.85,392.42,383.09,270l5.37-30.68h-124V392.42Z" transform="translate(-264.44 -205.24)"/><path class="cls-4" d="M398.46,392.42,383.09,270,324.85,392.42Z" transform="translate(-264.44 -205.24)"/><path class="cls-4" d="M383.09,270l15.37,122.44H463.1L482.32,239.3H388.46Z" transform="translate(-264.44 -205.24)"/><path class="cls-4" d="M482.32,239.3,463.1,392.42h33.35V239.3Z" transform="translate(-264.44 -205.24)"/><line class="cls-5" y1="187.69" x2="232" y2="187.69"/><text class="cls-6" transform="translate(3 183.73)">0%</text><line class="cls-5" y1="162.16" x2="232" y2="162.16"/><text class="cls-6" transform="translate(3 158.2)">10%</text><line class="cls-5" y1="136.64" x2="232" y2="136.64"/><text class="cls-6" transform="translate(3 132.68)">20%</text><line class="cls-5" y1="111.12" x2="232" y2="111.12"/><text class="cls-6" transform="translate(3 107.16)">30%</text><line class="cls-5" y1="85.6" x2="232" y2="85.6"/><text class="cls-6" transform="translate(3 81.64)">40%</text><line class="cls-5" y1="60.08" x2="232" y2="60.08"/><text class="cls-6" transform="translate(3 56.12)">50%</text><line class="cls-5" y1="34.56" x2="232" y2="34.56"/><text class="cls-6" transform="translate(3 30.6)">60%</text><line class="cls-5" x1="35.5" y1="187.19" x2="35.5" y2="34.06"/><text class="cls-7" transform="translate(9.2 199.19)">2003-2006</text><line class="cls-5" x1="101.17" y1="187.19" x2="101.17" y2="34.06"/><text class="cls-7" transform="translate(74.87 199.19)">2007-2010</text><line class="cls-5" x1="166.84" y1="187.19" x2="166.84" y2="34.06"/><text class="cls-7" transform="translate(140.94 199.19)">20<tspan class="cls-8" x="12.24" y="0">1</tspan><tspan x="17.54" y="0">1-2014</tspan></text><line class="cls-5" x1="232.5" y1="187.19" x2="232.5" y2="34.06"/><text class="cls-7" transform="translate(206.2 199.19)">2015-2018</text><g class="cls-9"><path class="cls-10" d="M299.44,361.19l65.67,31.23,65.67-8.24,65.67,8.24" transform="translate(-264.44 -205.24)"/></g><path id="point-0-0" class="cls-11" d="M296.44,361.19a3,3,0,1,1,3,3A3,3,0,0,1,296.44,361.19Z" transform="translate(-264.44 -205.24)"/><path id="point-0-1" class="cls-11" d="M362.11,392.42a3,3,0,1,1,3,3A3,3,0,0,1,362.11,392.42Z" transform="translate(-264.44 -205.24)"/><path id="point-0-2" class="cls-11" d="M427.78,384.18a3,3,0,1,1,3,3A3,3,0,0,1,427.78,384.18Z" transform="translate(-264.44 -205.24)"/><path id="point-0-3" class="cls-11" d="M493.45,392.42a3,3,0,1,1,3,3A3,3,0,0,1,493.45,392.42Z" transform="translate(-264.44 -205.24)"/></svg>