<svg id="Layer_1" data-name="Layer 1" xmlns="http://www.w3.org/2000/svg" xmlns:xlink="http://www.w3.org/1999/xlink" viewBox="0 0 258.81 202.83"><defs><style>.cls-1,.cls-10,.cls-5{fill:none;}.cls-2{font-size:14px;fill:#4f5050;font-family:Arial-BoldMT, Arial;font-weight:700;}.cls-3{fill:#fff;}.cls-4{fill:#010101;fill-opacity:0;}.cls-5{stroke:#eeedee;stroke-dasharray:0;}.cls-6,.cls-7{isolation:isolate;fill:#989898;font-family:ArialMT, Arial;}.cls-6{font-size:12px;}.cls-7{font-size:11px;}.cls-8{letter-spacing:-0.07em;}.cls-9{clip-path:url(#clip-path);}.cls-10{stroke:#73ae47;stroke-width:2px;}.cls-11{fill:#73ae47;}</style><clipPath id="clip-path" transform="translate(-296.47 -177.24)"><rect class="cls-1" x="296.47" y="191.38" width="232" height="183.12"/></clipPath></defs><title>Politics_Policy</title><text class="cls-2" transform="translate(0 12.01)">Policy</text><rect class="cls-3" y="34.14" width="232" height="153.12"/><path class="cls-4" d="M371.42,364.5l31.08-73.4-69.56-79.72H296.47V364.5Z" transform="translate(-296.47 -177.24)"/><path class="cls-4" d="M332.94,211.38,402.5,291.1l100.16-58.25,19.2-21.47Z" transform="translate(-296.47 -177.24)"/><path class="cls-4" d="M493.5,364.5l9.16-131.65L402.5,291.1l-31.08,73.4Z" transform="translate(-296.47 -177.24)"/><path class="cls-4" d="M521.86,211.38l-19.2,21.47L493.5,364.5h35V211.38Z" transform="translate(-296.47 -177.24)"/><line class="cls-5" y1="187.76" x2="232" y2="187.76"/><text class="cls-6" transform="translate(3 183.8)">0%</text><line class="cls-5" y1="162.24" x2="232" y2="162.24"/><text class="cls-6" transform="translate(3 158.28)">10%</text><line class="cls-5" y1="136.72" x2="232" y2="136.72"/><text class="cls-6" transform="translate(3 132.76)">20%</text><line class="cls-5" y1="111.2" x2="232" y2="111.2"/><text class="cls-6" transform="translate(3 107.24)">30%</text><line class="cls-5" y1="85.68" x2="232" y2="85.68"/><text class="cls-6" transform="translate(3 81.72)">40%</text><line class="cls-5" y1="60.16" x2="232" y2="60.16"/><text class="cls-6" transform="translate(3 56.2)">50%</text><line class="cls-5" y1="34.64" x2="232" y2="34.64"/><text class="cls-6" transform="translate(3 30.68)">60%</text><line class="cls-5" x1="35.5" y1="187.26" x2="35.5" y2="34.14"/><text class="cls-7" transform="translate(9.2 199.26)">2003-2006</text><line class="cls-5" x1="101.17" y1="187.26" x2="101.17" y2="34.14"/><text class="cls-7" transform="translate(74.87 199.26)">2007-2010</text><line class="cls-5" x1="166.84" y1="187.26" x2="166.84" y2="34.14"/><text class="cls-7" transform="translate(140.94 199.26)">20<tspan class="cls-8" x="12.24" y="0">1</tspan><tspan x="17.54" y="0">1-2014</tspan></text><line class="cls-5" x1="232.5" y1="187.26" x2="232.5" y2="34.14"/><text class="cls-7" transform="translate(206.2 199.26)">2015-2018</text><g class="cls-9"><path class="cls-10" d="M331.47,276l65.66-57.29,65.67,112.9,65.67,4.57" transform="translate(-296.47 -177.24)"/></g><path id="point-7-0" class="cls-11" d="M328.47,276a3,3,0,1,1,3,3A3,3,0,0,1,328.47,276Z" transform="translate(-296.47 -177.24)"/><path id="point-7-1" class="cls-11" d="M394.13,218.68a3,3,0,1,1,3,3A3,3,0,0,1,394.13,218.68Z" transform="translate(-296.47 -177.24)"/><path id="point-7-2" class="cls-11" d="M459.8,331.58a3,3,0,0,1,6,0h0a3,3,0,0,1-6,0Z" transform="translate(-296.47 -177.24)"/><path id="point-7-3" class="cls-11" d="M525.47,336.15a3,3,0,0,1,6,0h0a3,3,0,0,1-6,0Z" transform="translate(-296.47 -177.24)"/></svg>