<svg id="Layer_1" data-name="Layer 1" xmlns="http://www.w3.org/2000/svg" xmlns:xlink="http://www.w3.org/1999/xlink" viewBox="0 0 258.81 201.57"><defs><style>.cls-1,.cls-4,.cls-9{fill:none;}.cls-2,.cls-6{font-size:11px;}.cls-2{fill:#4f5050;font-family:Arial-BoldMT, Arial;font-weight:700;}.cls-3{fill:#fff;}.cls-4{stroke:#eeedee;stroke-dasharray:0;}.cls-5,.cls-6{isolation:isolate;fill:#989898;font-family:ArialMT, Arial;}.cls-5{font-size:12px;}.cls-7{letter-spacing:-0.07em;}.cls-8{clip-path:url(#clip-path);}.cls-9{stroke:#1e6a97;stroke-width:2px;}.cls-10{fill:#1e6a97;}</style><clipPath id="clip-path" transform="translate(-296.84 -177.23)"><rect class="cls-1" x="296.84" y="190.11" width="232" height="183.12"/></clipPath></defs><title>Economy_Stock Market, Investment &amp;amp; Financial Crisis.svg</title><text class="cls-2" transform="translate(0 9.44)">Stock Market, Investment &amp; Financial Crisis</text><rect class="cls-3" y="32.88" width="232" height="153.12"/><line class="cls-4" y1="186.5" x2="232" y2="186.5"/><text class="cls-5" transform="translate(3 182.54)">0%</text><line class="cls-4" y1="164.63" x2="232" y2="164.63"/><text class="cls-5" transform="translate(3 160.67)">5%</text><line class="cls-4" y1="142.75" x2="232" y2="142.75"/><text class="cls-5" transform="translate(3 138.79)">10%</text><line class="cls-4" y1="120.88" x2="232" y2="120.88"/><text class="cls-5" transform="translate(3 116.92)">15%</text><line class="cls-4" y1="99" x2="232" y2="99"/><text class="cls-5" transform="translate(3 95.04)">20%</text><line class="cls-4" y1="77.13" x2="232" y2="77.13"/><text class="cls-5" transform="translate(3 73.17)">25%</text><line class="cls-4" y1="55.25" x2="232" y2="55.25"/><text class="cls-5" transform="translate(3 51.29)">30%</text><line class="cls-4" y1="33.38" x2="232" y2="33.38"/><text class="cls-5" transform="translate(3 29.42)">35%</text><line class="cls-4" x1="35.5" y1="186" x2="35.5" y2="32.88"/><text class="cls-6" transform="translate(9.2 198)">2003-2006</text><line class="cls-4" x1="101.17" y1="186" x2="101.17" y2="32.88"/><text class="cls-6" transform="translate(74.87 198)">2007-2010</text><line class="cls-4" x1="166.84" y1="186" x2="166.84" y2="32.88"/><line class="cls-4" x1="232" y1="186" x2="232" y2="32.88"/><text class="cls-6" transform="translate(140.94 198)">20<tspan class="cls-7" x="12.24" y="0">1</tspan><tspan x="17.54" y="0">1-2014</tspan></text><text class="cls-6" transform="translate(206.2 198)">2015-2018</text><g class="cls-8"><path class="cls-9" d="M331.84,313.4l65.67-46.68,65.67,67.33,65.67-29.14" transform="translate(-296.84 -177.23)"/></g><path id="point-7-0" class="cls-10" d="M328.84,313.4a3,3,0,1,1,3,3A3,3,0,0,1,328.84,313.4Z" transform="translate(-296.84 -177.23)"/><path id="point-7-1" class="cls-10" d="M394.51,266.72a3,3,0,1,1,3,3A3,3,0,0,1,394.51,266.72Z" transform="translate(-296.84 -177.23)"/><path id="point-7-2" class="cls-10" d="M460.18,334.05a3,3,0,1,1,3,3A3,3,0,0,1,460.18,334.05Z" transform="translate(-296.84 -177.23)"/><path id="point-7-3" class="cls-10" d="M525.85,304.91a3,3,0,1,1,3,3A3,3,0,0,1,525.85,304.91Z" transform="translate(-296.84 -177.23)"/></svg>