<svg id="Layer_1" data-name="Layer 1" xmlns="http://www.w3.org/2000/svg" xmlns:xlink="http://www.w3.org/1999/xlink" viewBox="0 0 258.81 202.06"><defs><style>.cls-1,.cls-4,.cls-9{fill:none;}.cls-2{font-size:14px;fill:#4f5050;font-family:Arial-BoldMT, Arial;font-weight:700;}.cls-3{fill:#fff;}.cls-4{stroke:#eeedee;stroke-dasharray:0;}.cls-5,.cls-6{isolation:isolate;fill:#989898;font-family:ArialMT, Arial;}.cls-5{font-size:12px;}.cls-6{font-size:11px;}.cls-7{letter-spacing:-0.07em;}.cls-8{clip-path:url(#clip-path);}.cls-9{stroke:#1e6a97;stroke-width:2px;}.cls-10{fill:#1e6a97;}</style><clipPath id="clip-path" transform="translate(-264.06 -205.86)"><rect class="cls-1" x="264.06" y="219.22" width="232" height="183.12"/></clipPath></defs><title>Economy_Economic System and Performance</title><text class="cls-2" transform="translate(0 12.01)">Economic System and Performance</text><rect class="cls-3" y="33.37" width="232" height="153.12"/><line class="cls-4" y1="186.99" x2="232" y2="186.99"/><text class="cls-5" transform="translate(3 183.03)">0%</text><line class="cls-4" y1="165.11" x2="232" y2="165.11"/><text class="cls-5" transform="translate(3 161.16)">5%</text><line class="cls-4" y1="143.24" x2="232" y2="143.24"/><text class="cls-5" transform="translate(3 139.28)">10%</text><line class="cls-4" y1="121.37" x2="232" y2="121.37"/><text class="cls-5" transform="translate(3 117.41)">15%</text><line class="cls-4" y1="99.49" x2="232" y2="99.49"/><text class="cls-5" transform="translate(3 95.53)">20%</text><line class="cls-4" y1="77.62" x2="232" y2="77.62"/><text class="cls-5" transform="translate(3 73.66)">25%</text><line class="cls-4" y1="55.74" x2="232" y2="55.74"/><text class="cls-5" transform="translate(3 51.78)">30%</text><line class="cls-4" y1="33.87" x2="232" y2="33.87"/><text class="cls-5" transform="translate(3 29.91)">35%</text><line class="cls-4" x1="35.5" y1="186.49" x2="35.5" y2="33.37"/><text class="cls-6" transform="translate(9.2 198.49)">2003-2006</text><line class="cls-4" x1="101.17" y1="186.49" x2="101.17" y2="33.37"/><text class="cls-6" transform="translate(74.87 198.49)">2007-2010</text><line class="cls-4" x1="166.84" y1="186.49" x2="166.84" y2="33.37"/><text class="cls-6" transform="translate(140.94 198.49)">20<tspan class="cls-7" x="12.24" y="0">1</tspan><tspan x="17.54" y="0">1-2014</tspan></text><line class="cls-4" x1="232.5" y1="186.49" x2="232.5" y2="33.37"/><text class="cls-6" transform="translate(206.2 198.49)">2015-2018</text><g class="cls-8"><path class="cls-9" d="M299.06,364.65l65.67-10.89,65.67-5.16,65.67,43.75" transform="translate(-264.06 -205.86)"/></g><path id="point-1-0" class="cls-10" d="M296.06,364.65a3,3,0,1,1,3,3A3,3,0,0,1,296.06,364.65Z" transform="translate(-264.06 -205.86)"/><path id="point-1-1" class="cls-10" d="M361.73,353.76a3,3,0,0,1,6,0h0a3,3,0,0,1-6,0Z" transform="translate(-264.06 -205.86)"/><path id="point-1-2" class="cls-10" d="M427.4,348.6a3,3,0,1,1,3,3A3,3,0,0,1,427.4,348.6Z" transform="translate(-264.06 -205.86)"/><path id="point-1-3" class="cls-10" d="M493.07,392.35a3,3,0,1,1,3,3A3,3,0,0,1,493.07,392.35Z" transform="translate(-264.06 -205.86)"/></svg>