<svg id="Layer_1" data-name="Layer 1" xmlns="http://www.w3.org/2000/svg" xmlns:xlink="http://www.w3.org/1999/xlink" viewBox="0 0 258.81 203.06"><defs><style>.cls-1,.cls-4,.cls-9{fill:none;}.cls-2{font-size:14px;fill:#4f5050;font-family:Arial-BoldMT, Arial;font-weight:700;}.cls-3{fill:#fff;}.cls-4{stroke:#eeedee;stroke-dasharray:0;}.cls-5,.cls-6{isolation:isolate;fill:#989898;font-family:ArialMT, Arial;}.cls-5{font-size:12px;}.cls-6{font-size:11px;}.cls-7{letter-spacing:-0.07em;}.cls-8{clip-path:url(#clip-path);}.cls-9{stroke:#1e6a97;stroke-width:2px;}.cls-10{fill:#1e6a97;}</style><clipPath id="clip-path" transform="translate(-264.85 -204.86)"><rect class="cls-1" x="264.85" y="219.22" width="232" height="183.12"/></clipPath></defs><title>Economy_Industries and Sectors</title><text class="cls-2" transform="translate(0 12.01)">Industries and Sectors</text><rect class="cls-3" y="34.36" width="232" height="153.12"/><line class="cls-4" y1="187.99" x2="232" y2="187.99"/><text class="cls-5" transform="translate(3 184.03)">0%</text><line class="cls-4" y1="166.11" x2="232" y2="166.11"/><text class="cls-5" transform="translate(3 162.15)">5%</text><line class="cls-4" y1="144.24" x2="232" y2="144.24"/><text class="cls-5" transform="translate(3 140.28)">10%</text><line class="cls-4" y1="122.36" x2="232" y2="122.36"/><text class="cls-5" transform="translate(3 118.4)">15%</text><line class="cls-4" y1="100.49" x2="232" y2="100.49"/><text class="cls-5" transform="translate(3 96.53)">20%</text><line class="cls-4" y1="78.61" x2="232" y2="78.61"/><text class="cls-5" transform="translate(3 74.65)">25%</text><line class="cls-4" y1="56.74" x2="232" y2="56.74"/><text class="cls-5" transform="translate(3 52.78)">30%</text><line class="cls-4" y1="34.86" x2="232" y2="34.86"/><text class="cls-5" transform="translate(3 30.9)">35%</text><line class="cls-4" x1="35.5" y1="187.49" x2="35.5" y2="34.36"/><text class="cls-6" transform="translate(9.2 199.49)">2003-2006</text><line class="cls-4" x1="101.17" y1="187.49" x2="101.17" y2="34.36"/><text class="cls-6" transform="translate(74.87 199.49)">2007-2010</text><line class="cls-4" x1="166.84" y1="187.49" x2="166.84" y2="34.36"/><text class="cls-6" transform="translate(140.94 199.49)">20<tspan class="cls-7" x="12.24" y="0">1</tspan><tspan x="17.54" y="0">1-2014</tspan></text><line class="cls-4" x1="232.5" y1="187.49" x2="232.5" y2="34.36"/><text class="cls-6" transform="translate(206.2 199.49)">2015-2018</text><g class="cls-8"><path class="cls-9" d="M299.85,248.36l65.66,28.18,65.67-15.44,65.67,29.18" transform="translate(-264.85 -204.86)"/></g><path id="point-2-0" class="cls-10" d="M296.85,248.36a3,3,0,1,1,3,3A3,3,0,0,1,296.85,248.36Z" transform="translate(-264.85 -204.86)"/><path id="point-2-1" class="cls-10" d="M362.51,276.54a3,3,0,1,1,3,3A3,3,0,0,1,362.51,276.54Z" transform="translate(-264.85 -204.86)"/><path id="point-2-2" class="cls-10" d="M428.18,261.1a3,3,0,1,1,3,3A3,3,0,0,1,428.18,261.1Z" transform="translate(-264.85 -204.86)"/><path id="point-2-3" class="cls-10" d="M493.85,290.28a3,3,0,1,1,3,3A3,3,0,0,1,493.85,290.28Z" transform="translate(-264.85 -204.86)"/></svg>