<svg id="Layer_1" data-name="Layer 1" xmlns="http://www.w3.org/2000/svg" xmlns:xlink="http://www.w3.org/1999/xlink" viewBox="0 0 258.81 201.95"><defs><style>.cls-1,.cls-4,.cls-9{fill:none;}.cls-2{font-size:14px;fill:#4f5050;font-family:Arial-BoldMT, Arial;font-weight:700;}.cls-3{fill:#fff;}.cls-4{stroke:#eeedee;stroke-dasharray:0;}.cls-5,.cls-6{isolation:isolate;fill:#989898;font-family:ArialMT, Arial;}.cls-5{font-size:12px;}.cls-6{font-size:11px;}.cls-7{letter-spacing:-0.07em;}.cls-8{clip-path:url(#clip-path);}.cls-9{stroke:#1e6a97;stroke-width:2px;}.cls-10{fill:#1e6a97;}</style><clipPath id="clip-path" transform="translate(-264.5 -205.86)"><rect class="cls-1" x="264.5" y="219.11" width="232" height="183.12"/></clipPath></defs><title>Economy_Personal Financial</title><text class="cls-2" transform="translate(0 12.01)">Personal Financial</text><rect class="cls-3" y="33.25" width="232" height="153.12"/><line class="cls-4" y1="186.88" x2="232" y2="186.88"/><text class="cls-5" transform="translate(3 182.92)">0%</text><line class="cls-4" y1="165" x2="232" y2="165"/><text class="cls-5" transform="translate(3 161.04)">5%</text><line class="cls-4" y1="143.13" x2="232" y2="143.13"/><text class="cls-5" transform="translate(3 139.17)">10%</text><line class="cls-4" y1="121.25" x2="232" y2="121.25"/><text class="cls-5" transform="translate(3 117.29)">15%</text><line class="cls-4" y1="99.38" x2="232" y2="99.38"/><text class="cls-5" transform="translate(3 95.42)">20%</text><line class="cls-4" y1="77.5" x2="232" y2="77.5"/><text class="cls-5" transform="translate(3 73.54)">25%</text><line class="cls-4" y1="55.63" x2="232" y2="55.63"/><text class="cls-5" transform="translate(3 51.67)">30%</text><line class="cls-4" y1="33.75" x2="232" y2="33.75"/><text class="cls-5" transform="translate(3 29.79)">35%</text><line class="cls-4" x1="35.5" y1="186.38" x2="35.5" y2="33.25"/><text class="cls-6" transform="translate(9.2 198.38)">2003-2006</text><line class="cls-4" x1="101.17" y1="186.38" x2="101.17" y2="33.25"/><text class="cls-6" transform="translate(74.87 198.38)">2007-2010</text><line class="cls-4" x1="166.84" y1="186.38" x2="166.84" y2="33.25"/><text class="cls-6" transform="translate(140.94 198.38)">20<tspan class="cls-7" x="12.24" y="0">1</tspan><tspan x="17.54" y="0">1-2014</tspan></text><line class="cls-4" x1="232.5" y1="186.38" x2="232.5" y2="33.25"/><text class="cls-6" transform="translate(206.2 198.38)">2015-2018</text><g class="cls-8"><path class="cls-9" d="M299.5,381.16l65.67-8.22,65.67,4.72,65.66-29.18" transform="translate(-264.5 -205.86)"/></g><path id="point-3-0" class="cls-10" d="M296.5,381.16a3,3,0,1,1,3,3A3,3,0,0,1,296.5,381.16Z" transform="translate(-264.5 -205.86)"/><path id="point-3-1" class="cls-10" d="M362.17,372.94a3,3,0,1,1,3,3A3,3,0,0,1,362.17,372.94Z" transform="translate(-264.5 -205.86)"/><path id="point-3-2" class="cls-10" d="M427.84,377.66a3,3,0,1,1,3,3A3,3,0,0,1,427.84,377.66Z" transform="translate(-264.5 -205.86)"/><path id="point-3-3" class="cls-10" d="M493.5,348.48a3,3,0,1,1,3,3A3,3,0,0,1,493.5,348.48Z" transform="translate(-264.5 -205.86)"/></svg>