<svg id="Layer_1" data-name="Layer 1" xmlns="http://www.w3.org/2000/svg" xmlns:xlink="http://www.w3.org/1999/xlink" viewBox="0 0 258.81 203.06"><defs><style>.cls-1,.cls-4,.cls-9{fill:none;}.cls-2{font-size:14px;fill:#4f5050;font-family:Arial-BoldMT, Arial;font-weight:700;}.cls-3{fill:#fff;}.cls-4{stroke:#eeedee;stroke-dasharray:0;}.cls-5,.cls-6{isolation:isolate;fill:#989898;font-family:ArialMT, Arial;}.cls-5{font-size:12px;}.cls-6{font-size:11px;}.cls-7{letter-spacing:-0.07em;}.cls-8{clip-path:url(#clip-path);}.cls-9{stroke:#1e6a97;stroke-width:2px;}.cls-10{fill:#1e6a97;}</style><clipPath id="clip-path" transform="translate(-264.66 -204.86)"><rect class="cls-1" x="264.66" y="219.22" width="232" height="183.12"/></clipPath></defs><title>Economy_Culture Market and Media</title><text class="cls-2" transform="translate(0 12.01)">Culture Market and Media</text><rect class="cls-3" y="34.37" width="232" height="153.12"/><line class="cls-4" y1="187.99" x2="232" y2="187.99"/><text class="cls-5" transform="translate(3 184.03)">0%</text><line class="cls-4" y1="166.11" x2="232" y2="166.11"/><text class="cls-5" transform="translate(3 162.16)">5%</text><line class="cls-4" y1="144.24" x2="232" y2="144.24"/><text class="cls-5" transform="translate(3 140.28)">10%</text><line class="cls-4" y1="122.37" x2="232" y2="122.37"/><text class="cls-5" transform="translate(3 118.41)">15%</text><line class="cls-4" y1="100.49" x2="232" y2="100.49"/><text class="cls-5" transform="translate(3 96.53)">20%</text><line class="cls-4" y1="78.62" x2="232" y2="78.62"/><text class="cls-5" transform="translate(3 74.66)">25%</text><line class="cls-4" y1="56.74" x2="232" y2="56.74"/><text class="cls-5" transform="translate(3 52.78)">30%</text><line class="cls-4" y1="34.87" x2="232" y2="34.87"/><text class="cls-5" transform="translate(3 30.91)">35%</text><line class="cls-4" x1="35.5" y1="187.49" x2="35.5" y2="34.37"/><text class="cls-6" transform="translate(9.2 199.49)">2003-2006</text><line class="cls-4" x1="101.17" y1="187.49" x2="101.17" y2="34.37"/><text class="cls-6" transform="translate(74.87 199.49)">2007-2010</text><line class="cls-4" x1="166.84" y1="187.49" x2="166.84" y2="34.37"/><text class="cls-6" transform="translate(140.94 199.49)">20<tspan class="cls-7" x="12.24" y="0">1</tspan><tspan x="17.54" y="0">1-2014</tspan></text><line class="cls-4" x1="232.5" y1="187.49" x2="232.5" y2="34.37"/><text class="cls-6" transform="translate(206.2 199.49)">2015-2018</text><g class="cls-8"><path class="cls-9" d="M299.66,348l65.67-20L431,290.28l65.67,29.14" transform="translate(-264.66 -204.86)"/></g><path id="point-0-0" class="cls-10" d="M296.66,348a3,3,0,0,1,6,0h0a3,3,0,0,1-6,0Z" transform="translate(-264.66 -204.86)"/><path id="point-0-1" class="cls-10" d="M362.33,328a3,3,0,1,1,3,3A3,3,0,0,1,362.33,328Z" transform="translate(-264.66 -204.86)"/><path id="point-0-2" class="cls-10" d="M428,290.28a3,3,0,1,1,3,3A3,3,0,0,1,428,290.28Z" transform="translate(-264.66 -204.86)"/><path id="point-0-3" class="cls-10" d="M493.67,319.42a3,3,0,1,1,3,3A3,3,0,0,1,493.67,319.42Z" transform="translate(-264.66 -204.86)"/></svg>