<svg id="Layer_1" data-name="Layer 1" xmlns="http://www.w3.org/2000/svg" xmlns:xlink="http://www.w3.org/1999/xlink" viewBox="0 0 258.81 202.09"><defs><style>.cls-1,.cls-4,.cls-9{fill:none;}.cls-2{font-size:14px;fill:#4f5050;font-family:Arial-BoldMT, Arial;font-weight:700;}.cls-3{fill:#fff;}.cls-4{stroke:#eeedee;stroke-dasharray:0;}.cls-5,.cls-6{isolation:isolate;fill:#989898;font-family:ArialMT, Arial;}.cls-5{font-size:12px;}.cls-6{font-size:11px;}.cls-7{letter-spacing:-0.07em;}.cls-8{clip-path:url(#clip-path);}.cls-9{stroke:#1e6a97;stroke-width:2px;}.cls-10{fill:#1e6a97;}</style><clipPath id="clip-path" transform="translate(-264.43 -204.86)"><rect class="cls-1" x="264.43" y="218.25" width="232" height="183.12"/></clipPath></defs><title>Economy_Regional Economy</title><text class="cls-2" transform="translate(0 12.01)"><tspan xml:space="preserve">Regional Economy  </tspan></text><rect class="cls-3" y="33.4" width="232" height="153.12"/><line class="cls-4" y1="187.02" x2="232" y2="187.02"/><text class="cls-5" transform="translate(3 183.06)">0%</text><line class="cls-4" y1="165.14" x2="232" y2="165.14"/><text class="cls-5" transform="translate(3 161.18)">5%</text><line class="cls-4" y1="143.27" x2="232" y2="143.27"/><text class="cls-5" transform="translate(3 139.31)">10%</text><line class="cls-4" y1="121.39" x2="232" y2="121.39"/><text class="cls-5" transform="translate(3 117.43)">15%</text><line class="cls-4" y1="99.52" x2="232" y2="99.52"/><text class="cls-5" transform="translate(3 95.56)">20%</text><line class="cls-4" y1="77.65" x2="232" y2="77.65"/><text class="cls-5" transform="translate(3 73.69)">25%</text><line class="cls-4" y1="55.77" x2="232" y2="55.77"/><text class="cls-5" transform="translate(3 51.81)">30%</text><line class="cls-4" y1="33.9" x2="232" y2="33.9"/><text class="cls-5" transform="translate(3 29.94)">35%</text><line class="cls-4" x1="35.5" y1="186.52" x2="35.5" y2="33.4"/><text class="cls-6" transform="translate(9.2 198.52)">2003-2006</text><line class="cls-4" x1="101.17" y1="186.52" x2="101.17" y2="33.4"/><text class="cls-6" transform="translate(74.87 198.52)">2007-2010</text><line class="cls-4" x1="166.84" y1="186.52" x2="166.84" y2="33.4"/><text class="cls-6" transform="translate(140.94 198.52)">20<tspan class="cls-7" x="12.24" y="0">1</tspan><tspan x="17.54" y="0">1-2014</tspan></text><line class="cls-4" x1="232.5" y1="186.52" x2="232.5" y2="33.4"/><text class="cls-6" transform="translate(206.2 198.52)">2015-2018</text><g class="cls-8"><path class="cls-9" d="M299.43,374.75l65.67-2.67,65.67-9.89,65.67,29.19" transform="translate(-264.43 -204.86)"/></g><path id="point-5-0" class="cls-10" d="M296.43,374.75a3,3,0,1,1,3,3A3,3,0,0,1,296.43,374.75Z" transform="translate(-264.43 -204.86)"/><path id="point-5-1" class="cls-10" d="M362.1,372.08a3,3,0,1,1,3,3A3,3,0,0,1,362.1,372.08Z" transform="translate(-264.43 -204.86)"/><path id="point-5-2" class="cls-10" d="M427.77,362.19a3,3,0,1,1,3,3A3,3,0,0,1,427.77,362.19Z" transform="translate(-264.43 -204.86)"/><path id="point-5-3" class="cls-10" d="M493.44,391.38a3,3,0,1,1,3,3A3,3,0,0,1,493.44,391.38Z" transform="translate(-264.43 -204.86)"/></svg>