<svg id="Layer_1" data-name="Layer 1" xmlns="http://www.w3.org/2000/svg" xmlns:xlink="http://www.w3.org/1999/xlink" viewBox="0 0 258.81 203.16"><defs><style>.cls-1,.cls-4,.cls-9{fill:none;}.cls-2{font-size:14px;fill:#4f5050;font-family:Arial-BoldMT, Arial;font-weight:700;}.cls-3{fill:#fff;}.cls-4{stroke:#eeedee;stroke-dasharray:0;}.cls-5,.cls-6{isolation:isolate;fill:#989898;font-family:ArialMT, Arial;}.cls-5{font-size:12px;}.cls-6{font-size:11px;}.cls-7{letter-spacing:-0.07em;}.cls-8{clip-path:url(#clip-path);}.cls-9{stroke:#95356f;stroke-width:2px;}.cls-10{fill:#95356f;}</style><clipPath id="clip-path" transform="translate(-309.02 -131.99)"><rect class="cls-1" x="309.02" y="146.45" width="232" height="183.12"/></clipPath></defs><title>Science_Psychology</title><text class="cls-2" transform="translate(0 12.01)">Psychology</text><rect class="cls-3" y="34.47" width="232" height="153.12"/><line class="cls-4" y1="188.09" x2="232" y2="188.09"/><text class="cls-5" transform="translate(3 184.13)">0%</text><line class="cls-4" y1="168.95" x2="232" y2="168.95"/><text class="cls-5" transform="translate(3 164.99)">5%</text><line class="cls-4" y1="149.81" x2="232" y2="149.81"/><text class="cls-5" transform="translate(3 145.85)">10%</text><line class="cls-4" y1="130.67" x2="232" y2="130.67"/><text class="cls-5" transform="translate(3 126.71)">15%</text><line class="cls-4" y1="111.53" x2="232" y2="111.53"/><text class="cls-5" transform="translate(3 107.57)">20%</text><line class="cls-4" y1="92.39" x2="232" y2="92.39"/><text class="cls-5" transform="translate(3 88.43)">25%</text><line class="cls-4" y1="73.25" x2="232" y2="73.25"/><text class="cls-5" transform="translate(3 69.29)">30%</text><line class="cls-4" y1="54.11" x2="232" y2="54.11"/><text class="cls-5" transform="translate(3 50.15)">35%</text><line class="cls-4" y1="34.97" x2="232" y2="34.97"/><text class="cls-5" transform="translate(3 31.01)">40%</text><line class="cls-4" x1="35.5" y1="187.59" x2="35.5" y2="34.47"/><text class="cls-6" transform="translate(9.2 199.59)">2003-2006</text><line class="cls-4" x1="101.17" y1="187.59" x2="101.17" y2="34.47"/><text class="cls-6" transform="translate(74.87 199.59)">2007-2010</text><line class="cls-4" x1="166.84" y1="187.59" x2="166.84" y2="34.47"/><text class="cls-6" transform="translate(140.94 199.59)">20<tspan class="cls-7" x="12.24" y="0">1</tspan><tspan x="17.54" y="0">1-2014</tspan></text><line class="cls-4" x1="232.5" y1="187.59" x2="232.5" y2="34.47"/><text class="cls-6" transform="translate(206.2 199.59)">2015-2018</text><g class="cls-8"><path class="cls-9" d="M344,319.58h65.67l65.67-47.85L541,268.55" transform="translate(-309.02 -131.99)"/></g><path id="point-6-0" class="cls-10" d="M341,319.58a3,3,0,1,1,3,3A3,3,0,0,1,341,319.58Z" transform="translate(-309.02 -131.99)"/><path id="point-6-1" class="cls-10" d="M406.69,319.58a3,3,0,1,1,3,3A3,3,0,0,1,406.69,319.58Z" transform="translate(-309.02 -131.99)"/><path id="point-6-2" class="cls-10" d="M472.36,271.73a3,3,0,1,1,3,3A3,3,0,0,1,472.36,271.73Z" transform="translate(-309.02 -131.99)"/><path id="point-6-3" class="cls-10" d="M538,268.55a3,3,0,1,1,3,3A3,3,0,0,1,538,268.55Z" transform="translate(-309.02 -131.99)"/></svg>