<svg id="Layer_1" data-name="Layer 1" xmlns="http://www.w3.org/2000/svg" xmlns:xlink="http://www.w3.org/1999/xlink" viewBox="0 0 258.81 202.24"><defs><style>.cls-1,.cls-10,.cls-5{fill:none;}.cls-2{font-size:14px;fill:#4f5050;font-family:Arial-BoldMT, Arial;font-weight:700;}.cls-3{fill:#fff;}.cls-4{fill:#010101;fill-opacity:0;}.cls-5{stroke:#eeedee;stroke-dasharray:0;}.cls-6,.cls-7{isolation:isolate;fill:#989898;font-family:ArialMT, Arial;}.cls-6{font-size:12px;}.cls-7{font-size:11px;}.cls-8{letter-spacing:-0.07em;}.cls-9{clip-path:url(#clip-path);}.cls-10{stroke:#95356f;stroke-width:2px;}.cls-11{fill:#95356f;}</style><clipPath id="clip-path" transform="translate(-264 -204.99)"><rect class="cls-1" x="264" y="219.54" width="232" height="183.12"/></clipPath></defs><title>Science_Computer Science</title><text class="cls-2" transform="translate(0 12.01)">Computer Science</text><rect class="cls-3" y="34.55" width="232" height="153.12"/><path class="cls-4" d="M355.1,392.66,280.66,239.54H264V392.66Z" transform="translate(-264 -204.99)"/><path class="cls-4" d="M280.66,239.54,355.1,392.66h11.4L434.21,323l-24.32-83.44Z" transform="translate(-264 -204.99)"/><path class="cls-4" d="M496,362.73,434.21,323,366.5,392.66H496Z" transform="translate(-264 -204.99)"/><path class="cls-4" d="M409.89,239.54,434.21,323,496,362.73V239.54Z" transform="translate(-264 -204.99)"/><line class="cls-5" y1="188.17" x2="232" y2="188.17"/><text class="cls-6" transform="translate(3 184.21)">0%</text><line class="cls-5" y1="169.03" x2="232" y2="169.03"/><text class="cls-6" transform="translate(3 165.07)">5%</text><line class="cls-5" y1="149.89" x2="232" y2="149.89"/><text class="cls-6" transform="translate(3 145.93)">10%</text><line class="cls-5" y1="130.75" x2="232" y2="130.75"/><text class="cls-6" transform="translate(3 126.79)">15%</text><line class="cls-5" y1="111.61" x2="232" y2="111.61"/><text class="cls-6" transform="translate(3 107.65)">20%</text><line class="cls-5" y1="92.47" x2="232" y2="92.47"/><text class="cls-6" transform="translate(3 88.51)">25%</text><line class="cls-5" y1="73.33" x2="232" y2="73.33"/><text class="cls-6" transform="translate(3 69.37)">30%</text><line class="cls-5" y1="54.19" x2="232" y2="54.19"/><text class="cls-6" transform="translate(3 50.23)">35%</text><line class="cls-5" y1="35.05" x2="232" y2="35.05"/><text class="cls-6" transform="translate(3 31.09)">40%</text><line class="cls-5" x1="35.5" y1="187.67" x2="35.5" y2="34.55"/><text class="cls-7" transform="translate(9.2 198.67)">2003-2006</text><line class="cls-5" x1="101.17" y1="187.67" x2="101.17" y2="34.55"/><text class="cls-7" transform="translate(74.87 198.67)">2007-2010</text><line class="cls-5" x1="166.84" y1="187.67" x2="166.84" y2="34.55"/><text class="cls-7" transform="translate(140.94 198.67)">20<tspan class="cls-8" x="12.24" y="0">1</tspan><tspan x="17.54" y="0">1-2014</tspan></text><line class="cls-5" x1="232.5" y1="187.67" x2="232.5" y2="34.55"/><text class="cls-7" transform="translate(206.2 198.67)">2015-2018</text><g class="cls-9"><path class="cls-10" d="M299,360.77l65.67-31.92,65.67,63.81L496,290.57" transform="translate(-264 -204.99)"/></g><path id="point-4-0" class="cls-11" d="M296,360.77a3,3,0,1,1,3,3A3,3,0,0,1,296,360.77Z" transform="translate(-264 -204.99)"/><path id="point-4-1" class="cls-11" d="M361.67,328.85a3,3,0,1,1,3,3A3,3,0,0,1,361.67,328.85Z" transform="translate(-264 -204.99)"/><path id="point-4-2" class="cls-11" d="M427.34,392.66a3,3,0,1,1,3,3A3,3,0,0,1,427.34,392.66Z" transform="translate(-264 -204.99)"/><path id="point-4-3" class="cls-11" d="M493,290.57a3,3,0,1,1,3,3A3,3,0,0,1,493,290.57Z" transform="translate(-264 -204.99)"/></svg>