<svg id="Layer_1" data-name="Layer 1" xmlns="http://www.w3.org/2000/svg" xmlns:xlink="http://www.w3.org/1999/xlink" viewBox="0 0 258.81 202.25"><defs><style>.cls-1,.cls-10,.cls-5{fill:none;}.cls-2{font-size:14px;fill:#4f5050;font-family:Arial-BoldMT, Arial;font-weight:700;}.cls-3{fill:#fff;}.cls-4{fill:#010101;fill-opacity:0;}.cls-5{stroke:#eeedee;stroke-dasharray:0;}.cls-6,.cls-7{isolation:isolate;fill:#989898;font-family:ArialMT, Arial;}.cls-6{font-size:12px;}.cls-7{font-size:11px;}.cls-8{letter-spacing:-0.07em;}.cls-9{clip-path:url(#clip-path);}.cls-10{stroke:#95356f;stroke-width:2px;}.cls-11{fill:#95356f;}</style><clipPath id="clip-path" transform="translate(-264.05 -204.98)"><rect class="cls-1" x="264.05" y="218.54" width="232" height="183.12"/></clipPath></defs><title>Science_Archaeology</title><text class="cls-2" transform="translate(0 12.01)">Archaeology</text><rect class="cls-3" y="34.56" width="232" height="153.12"/><path class="cls-4" d="M264.05,366.81,370.5,257.2l4.29-17.66H264.05Z" transform="translate(-264.05 -204.98)"/><path class="cls-4" d="M424.8,392.66l1.91-19.7L370.5,257.2,264.05,366.81v25.85Z" transform="translate(-264.05 -204.98)"/><path class="cls-4" d="M370.5,257.2,426.71,373,496.05,271V239.54H374.79Z" transform="translate(-264.05 -204.98)"/><path class="cls-4" d="M496.05,271,426.71,373l-1.91,19.7h71.25Z" transform="translate(-264.05 -204.98)"/><line class="cls-5" y1="188.18" x2="232" y2="188.18"/><text class="cls-6" transform="translate(3 184.22)">0%</text><line class="cls-5" y1="169.04" x2="232" y2="169.04"/><text class="cls-6" transform="translate(3 165.08)">5%</text><line class="cls-5" y1="149.9" x2="232" y2="149.9"/><text class="cls-6" transform="translate(3 145.94)">10%</text><line class="cls-5" y1="130.76" x2="232" y2="130.76"/><text class="cls-6" transform="translate(3 126.8)">15%</text><line class="cls-5" y1="111.62" x2="232" y2="111.62"/><text class="cls-6" transform="translate(3 107.66)">20%</text><line class="cls-5" y1="92.48" x2="232" y2="92.48"/><text class="cls-6" transform="translate(3 88.52)">25%</text><line class="cls-5" y1="73.34" x2="232" y2="73.34"/><text class="cls-6" transform="translate(3 69.38)">30%</text><line class="cls-5" y1="54.2" x2="232" y2="54.2"/><text class="cls-6" transform="translate(3 50.24)">35%</text><line class="cls-5" y1="35.06" x2="232" y2="35.06"/><text class="cls-6" transform="translate(3 31.1)">40%</text><line class="cls-5" x1="35.5" y1="187.68" x2="35.5" y2="34.56"/><text class="cls-7" transform="translate(9.2 198.68)">2003-2006</text><line class="cls-5" x1="101.17" y1="187.68" x2="101.17" y2="34.56"/><text class="cls-7" transform="translate(74.87 198.68)">2007-2010</text><line class="cls-5" x1="166.84" y1="187.68" x2="166.84" y2="34.56"/><text class="cls-7" transform="translate(140.94 198.68)">20<tspan class="cls-8" x="12.24" y="0">1</tspan><tspan x="17.54" y="0">1-2014</tspan></text><line class="cls-5" x1="232.5" y1="187.68" x2="232.5" y2="34.56"/><text class="cls-7" transform="translate(206.2 198.68)">2015-2018</text><g class="cls-9"><path class="cls-10" d="M299.05,264.07l65.67,63.78L430.39,296l65.66,44.67" transform="translate(-264.05 -204.98)"/></g><path id="point-2-0" class="cls-11" d="M296.05,265.07a3,3,0,1,1,3,3A3,3,0,0,1,296.05,265.07Z" transform="translate(-264.05 -204.98)"/><path id="point-2-1" class="cls-11" d="M361.72,328.85a3,3,0,1,1,3,3A3,3,0,0,1,361.72,328.85Z" transform="translate(-264.05 -204.98)"/><path id="point-2-2" class="cls-11" d="M427.39,297a3,3,0,1,1,3,3A3,3,0,0,1,427.39,297Z" transform="translate(-264.05 -204.98)"/><path id="point-2-3" class="cls-11" d="M493.05,341.63a3,3,0,1,1,3,3A3,3,0,0,1,493.05,341.63Z" transform="translate(-264.05 -204.98)"/></svg>