<svg id="Layer_1" data-name="Layer 1" xmlns="http://www.w3.org/2000/svg" xmlns:xlink="http://www.w3.org/1999/xlink" viewBox="0 0 258.81 202.5"><defs><style>.cls-1,.cls-10,.cls-6{fill:none;}.cls-2{font-size:14px;fill:#4f5050;font-family:Arial-BoldMT, Arial;font-weight:700;}.cls-3{letter-spacing:-0.07em;}.cls-4{fill:#fff;}.cls-5{fill:#010101;fill-opacity:0;}.cls-6{stroke:#eeedee;stroke-dasharray:0;}.cls-7,.cls-8{isolation:isolate;fill:#989898;font-family:ArialMT, Arial;}.cls-7{font-size:12px;}.cls-8{font-size:11px;}.cls-9{clip-path:url(#clip-path);}.cls-10{stroke:#95356f;stroke-width:2px;}.cls-11{fill:#95356f;}</style><clipPath id="clip-path" transform="translate(-296.48 -176.99)"><rect class="cls-1" x="296.48" y="191.8" width="232" height="183.12"/></clipPath></defs><title>Science_Space Technology</title><text class="cls-2" transform="translate(0.23 12.01)">Space <tspan class="cls-3" x="45.14" y="0">T</tspan><tspan x="52.65" y="0">echnology</tspan></text><rect class="cls-4" y="34.81" width="232" height="153.12"/><path class="cls-5" d="M364.31,364.92V211.8H296.48V364.92Z" transform="translate(-296.48 -176.99)"/><path class="cls-5" d="M364.31,211.8V364.92h52.1L453.63,211.8Z" transform="translate(-296.48 -176.99)"/><path class="cls-5" d="M478.21,364.92l50.27-69V211.8H453.63L416.41,364.92Z" transform="translate(-296.48 -176.99)"/><path class="cls-5" d="M528.48,295.94l-50.27,69h50.27Z" transform="translate(-296.48 -176.99)"/><line class="cls-6" y1="188.43" x2="232" y2="188.43"/><text class="cls-7" transform="translate(3 184.47)">0%</text><line class="cls-6" y1="169.29" x2="232" y2="169.29"/><text class="cls-7" transform="translate(3 165.33)">5%</text><line class="cls-6" y1="150.15" x2="232" y2="150.15"/><text class="cls-7" transform="translate(3 146.19)">10%</text><line class="cls-6" y1="131.01" x2="232" y2="131.01"/><text class="cls-7" transform="translate(3 127.05)">15%</text><line class="cls-6" y1="111.87" x2="232" y2="111.87"/><text class="cls-7" transform="translate(3 107.91)">20%</text><line class="cls-6" y1="92.73" x2="232" y2="92.73"/><text class="cls-7" transform="translate(3 88.77)">25%</text><line class="cls-6" y1="73.59" x2="232" y2="73.59"/><text class="cls-7" transform="translate(3 69.63)">30%</text><line class="cls-6" y1="54.45" x2="232" y2="54.45"/><text class="cls-7" transform="translate(3 50.49)">35%</text><line class="cls-6" y1="35.31" x2="232" y2="35.31"/><text class="cls-7" transform="translate(3 31.35)">40%</text><line class="cls-6" x1="35.5" y1="187.93" x2="35.5" y2="34.81"/><text class="cls-8" transform="translate(9.2 198.93)">2003-2006</text><line class="cls-6" x1="101.17" y1="187.93" x2="101.17" y2="34.81"/><text class="cls-8" transform="translate(74.87 198.93)">2007-2010</text><line class="cls-6" x1="166.84" y1="187.93" x2="166.84" y2="34.81"/><text class="cls-8" transform="translate(140.94 198.93)">20<tspan class="cls-3" x="12.24" y="0">1</tspan><tspan x="17.54" y="0">1-2014</tspan></text><line class="cls-6" x1="232.5" y1="187.93" x2="232.5" y2="34.81"/><text class="cls-8" transform="translate(206.2 198.93)">2015-2018</text><g class="cls-9"><path class="cls-10" d="M331.48,301.11h65.67l65.66,16,65.67,47.85" transform="translate(-296.48 -176.99)"/></g><path id="point-1-0" class="cls-11" d="M328.48,301.11a3,3,0,1,1,3,3A3,3,0,0,1,328.48,301.11Z" transform="translate(-296.48 -176.99)"/><path id="point-1-1" class="cls-11" d="M394.15,301.11a3,3,0,1,1,3,3A3,3,0,0,1,394.15,301.11Z" transform="translate(-296.48 -176.99)"/><path id="point-1-2" class="cls-11" d="M459.81,317.07a3,3,0,1,1,3,3A3,3,0,0,1,459.81,317.07Z" transform="translate(-296.48 -176.99)"/><path id="point-1-3" class="cls-11" d="M525.48,364.92a3,3,0,1,1,3,3A3,3,0,0,1,525.48,364.92Z" transform="translate(-296.48 -176.99)"/></svg>