<svg id="Layer_1" data-name="Layer 1" xmlns="http://www.w3.org/2000/svg" xmlns:xlink="http://www.w3.org/1999/xlink" viewBox="0 0 258.81 202.64"><defs><style>.cls-1,.cls-10,.cls-6{fill:none;}.cls-2{font-size:14px;fill:#4f5050;font-family:Arial-BoldMT, Arial;font-weight:700;}.cls-3{letter-spacing:-0.07em;}.cls-4{fill:#fff;}.cls-5{fill:#010101;fill-opacity:0;}.cls-6{stroke:#eeedee;stroke-dasharray:0;}.cls-7,.cls-8{isolation:isolate;fill:#989898;font-family:ArialMT, Arial;}.cls-7{font-size:12px;}.cls-8{font-size:11px;}.cls-9{clip-path:url(#clip-path);}.cls-10{stroke:#95356f;stroke-width:2px;}.cls-11{fill:#95356f;}</style><clipPath id="clip-path" transform="translate(-296.07 -155.99)"><rect class="cls-1" x="296.07" y="170.94" width="232" height="183.12"/></clipPath></defs><title>Science_Medical Technology</title><text class="cls-2" transform="translate(0 12.01)">Medical <tspan class="cls-3" x="55.24" y="0">T</tspan><tspan x="62.75" y="0">echnology</tspan></text><rect class="cls-4" y="34.95" width="232" height="153.12"/><path class="cls-5" d="M390,344.06l7.44-61.22-89.26-91.9H296.07V344.06Z" transform="translate(-296.07 -155.99)"/><path class="cls-5" d="M308.14,190.94l89.26,91.9L509,190.94Z" transform="translate(-296.07 -155.99)"/><path class="cls-5" d="M477.81,344.06l50.27-69V190.94H509L397.4,282.84,390,344.06Z" transform="translate(-296.07 -155.99)"/><path class="cls-5" d="M528.08,275.08l-50.27,69h50.27Z" transform="translate(-296.07 -155.99)"/><line class="cls-6" y1="188.57" x2="232" y2="188.57"/><text class="cls-7" transform="translate(3 184.61)">0%</text><line class="cls-6" y1="169.43" x2="232" y2="169.43"/><text class="cls-7" transform="translate(3 165.47)">5%</text><line class="cls-6" y1="150.29" x2="232" y2="150.29"/><text class="cls-7" transform="translate(3 146.33)">10%</text><line class="cls-6" y1="131.15" x2="232" y2="131.15"/><text class="cls-7" transform="translate(3 127.19)">15%</text><line class="cls-6" y1="112.01" x2="232" y2="112.01"/><text class="cls-7" transform="translate(3 108.05)">20%</text><line class="cls-6" y1="92.87" x2="232" y2="92.87"/><text class="cls-7" transform="translate(3 88.91)">25%</text><line class="cls-6" y1="73.73" x2="232" y2="73.73"/><text class="cls-7" transform="translate(3 69.77)">30%</text><line class="cls-6" y1="54.59" x2="232" y2="54.59"/><text class="cls-7" transform="translate(3 50.63)">35%</text><line class="cls-6" y1="35.45" x2="232" y2="35.45"/><text class="cls-7" transform="translate(3 31.49)">40%</text><line class="cls-6" x1="35.5" y1="188.07" x2="35.5" y2="34.95"/><text class="cls-8" transform="translate(9.2 199.07)">2003-2006</text><line class="cls-6" x1="101.17" y1="188.07" x2="101.17" y2="34.95"/><text class="cls-8" transform="translate(74.87 199.07)">2007-2010</text><line class="cls-6" x1="166.84" y1="188.07" x2="166.84" y2="34.95"/><text class="cls-8" transform="translate(140.94 199.07)">20<tspan class="cls-3" x="12.24" y="0">1</tspan><tspan x="17.54" y="0">1-2014</tspan></text><line class="cls-6" x1="232.5" y1="188.07" x2="232.5" y2="34.95"/><text class="cls-8" transform="translate(206.2 199.07)">2015-2018</text><g class="cls-9"><path class="cls-10" d="M331.07,280.25l65.67-63.78,65.67,79.74,65.67,47.85" transform="translate(-296.07 -155.99)"/></g><path id="point-3-0" class="cls-11" d="M328.07,280.25a3,3,0,1,1,3,3A3,3,0,0,1,328.07,280.25Z" transform="translate(-296.07 -155.99)"/><path id="point-3-1" class="cls-11" d="M393.74,216.47a3,3,0,1,1,3,3A3,3,0,0,1,393.74,216.47Z" transform="translate(-296.07 -155.99)"/><path id="point-3-2" class="cls-11" d="M459.41,296.21a3,3,0,1,1,3,3A3,3,0,0,1,459.41,296.21Z" transform="translate(-296.07 -155.99)"/><path id="point-3-3" class="cls-11" d="M525.08,344.06a3,3,0,1,1,3,3A3,3,0,0,1,525.08,344.06Z" transform="translate(-296.07 -155.99)"/></svg>