<svg id="Layer_1" data-name="Layer 1" xmlns="http://www.w3.org/2000/svg" xmlns:xlink="http://www.w3.org/1999/xlink" viewBox="0 0 258.81 202.45"><defs><style>.cls-1,.cls-4,.cls-9{fill:none;}.cls-2{font-size:14px;fill:#4f5050;font-family:Arial-BoldMT, Arial;font-weight:700;}.cls-3{fill:#fff;}.cls-4{stroke:#eeedee;stroke-dasharray:0;}.cls-5,.cls-6{isolation:isolate;fill:#989898;font-family:ArialMT, Arial;}.cls-5{font-size:12px;}.cls-6{font-size:11px;}.cls-7{letter-spacing:-0.07em;}.cls-8{clip-path:url(#clip-path);}.cls-9{stroke:#95356f;stroke-width:2px;}.cls-10{fill:#95356f;}</style><clipPath id="clip-path" transform="translate(-296.45 -176.98)"><rect class="cls-1" x="296.45" y="191.74" width="232" height="183.12"/></clipPath></defs><title>Science_Bio</title><text class="cls-2" transform="translate(0 12.01)">Bioscience &amp; Biotechnology</text><rect class="cls-3" y="34.76" width="232" height="153.12"/><line class="cls-4" y1="188.38" x2="232" y2="188.38"/><text class="cls-5" transform="translate(3 184.42)">0%</text><line class="cls-4" y1="169.24" x2="232" y2="169.24"/><text class="cls-5" transform="translate(3 165.28)">5%</text><line class="cls-4" y1="150.1" x2="232" y2="150.1"/><text class="cls-5" transform="translate(3 146.14)">10%</text><line class="cls-4" y1="130.96" x2="232" y2="130.96"/><text class="cls-5" transform="translate(3 127)">15%</text><line class="cls-4" y1="111.82" x2="232" y2="111.82"/><text class="cls-5" transform="translate(3 107.86)">20%</text><line class="cls-4" y1="92.68" x2="232" y2="92.68"/><text class="cls-5" transform="translate(3 88.72)">25%</text><line class="cls-4" y1="73.54" x2="232" y2="73.54"/><text class="cls-5" transform="translate(3 69.58)">30%</text><line class="cls-4" y1="54.4" x2="232" y2="54.4"/><text class="cls-5" transform="translate(3 50.44)">35%</text><line class="cls-4" y1="35.26" x2="232" y2="35.26"/><text class="cls-5" transform="translate(3 31.3)">40%</text><line class="cls-4" x1="35.5" y1="187.88" x2="35.5" y2="34.76"/><text class="cls-6" transform="translate(9.2 198.88)">2003-2006</text><line class="cls-4" x1="101.17" y1="187.88" x2="101.17" y2="34.76"/><text class="cls-6" transform="translate(74.87 198.88)">2007-2010</text><line class="cls-4" x1="166.84" y1="187.88" x2="166.84" y2="34.76"/><text class="cls-6" transform="translate(140.94 198.88)">20<tspan class="cls-7" x="12.24" y="0">1</tspan><tspan x="17.54" y="0">1-2014</tspan></text><line class="cls-4" x1="232.5" y1="187.88" x2="232.5" y2="34.76"/><text class="cls-6" transform="translate(206.2 198.88)">2015-2018</text><g class="cls-8"><path class="cls-9" d="M331.45,301.05l65.67,63.81h65.66l65.67-25.53" transform="translate(-296.45 -176.98)"/></g><path id="point-0-0" class="cls-10" d="M328.45,301.05a3,3,0,1,1,3,3A3,3,0,0,1,328.45,301.05Z" transform="translate(-296.45 -176.98)"/><path id="point-0-1" class="cls-10" d="M394.12,364.86a3,3,0,1,1,3,3A3,3,0,0,1,394.12,364.86Z" transform="translate(-296.45 -176.98)"/><path id="point-0-2" class="cls-10" d="M459.78,364.86a3,3,0,1,1,3,3A3,3,0,0,1,459.78,364.86Z" transform="translate(-296.45 -176.98)"/><path id="point-0-3" class="cls-10" d="M525.45,339.33a3,3,0,1,1,3,3A3,3,0,0,1,525.45,339.33Z" transform="translate(-296.45 -176.98)"/></svg>