<?xml version="1.0" encoding="utf-8"?>
<!-- Generator: Adobe Illustrator 22.1.0, SVG Export Plug-In . SVG Version: 6.00 Build 0)  -->
<svg version="1.1" id="Layer_1" xmlns="http://www.w3.org/2000/svg" xmlns:xlink="http://www.w3.org/1999/xlink" x="0px" y="0px"
	 viewBox="0 0 289.8 162.3" style="enable-background:new 0 0 289.8 162.3;" xml:space="preserve">
<style type="text/css">
	.st0{fill:#989898;}
	.st1{font-family:'ArialMT';}
	.st2{font-size:11px;}
	.st3{opacity:0.58;fill:#FF3E00;}
	.st4{opacity:0.65;}
	.st5{fill:#A5D4D7;}
	.st6{fill:none;stroke:#000000;stroke-width:0.5;}
	.st7{font-family:'MyriadPro-Regular';}
</style>
<title>Economy_Stock Market, Investment &amp;amp; Financial Crisis</title>
<text transform="matrix(1 0 0 1 0 41.6667)" class="st0 st1 st2">2003-2006</text>
<text transform="matrix(1 0 0 1 0 80.6667)" class="st0 st1 st2">2007-2010</text>
<text transform="matrix(1 0 0 1 0 120.475)" class="st0 st1 st2">2011-2014</text>
<text transform="matrix(1 0 0 1 0 160.2832)" class="st0 st1 st2">2015-2018</text>
<rect x="63.1" y="22.3" class="st3" width="88.3" height="21.4"/>
<g class="st4">
	<text transform="matrix(1 0 0 1 89.1333 16.0001)" class="st1 st2">39.3%</text>
</g>
<g class="st4">
	<text transform="matrix(1 0 0 1 62.1333 97.5865)" class="st1 st2">7.1%</text>
</g>
<rect x="152.8" y="22.3" class="st5" width="137" height="21.4"/>
<rect x="63.1" y="61.9" class="st5" width="226.7" height="21.4"/>
<rect x="63.1" y="101.4" class="st3" width="16" height="21.4"/>
<rect x="80.9" y="101.4" class="st5" width="208.9" height="21.4"/>
<rect x="63.1" y="141" class="st5" width="226.7" height="21.4"/>
<g>
	<g>
	</g>
</g>
<line class="st6" x1="71.1" y1="99" x2="71.1" y2="109"/>
<line class="st6" x1="104.1" y1="17.5" x2="104.1" y2="28.5"/>
<text transform="matrix(1 0 0 1 85.0833 38)" class="st7 st2">criminals</text>
<text transform="matrix(1 0 0 1 191.4167 37)" class="st7 st2">not criminals</text>
</svg>
